<?xml version="1.0" encoding="utf-8"?>
<!-- Generator: Adobe Illustrator 27.5.0, SVG Export Plug-In . SVG Version: 6.00 Build 0)  -->
<svg version="1.1" id="Слой_1" xmlns="http://www.w3.org/2000/svg" xmlns:xlink="http://www.w3.org/1999/xlink" x="0px" y="0px"
	 viewBox="0 0 3200 2000" style="enable-background:new 0 0 3200 2000;" xml:space="preserve">
<rect style="fill:#EBF3FA;" width="3200" height="2000"/>
<g>
	<rect x="359.919" y="699.328" style="fill:#DCE9FB;" width="678.787" height="1088.489"/>
	<g>
		<path style="fill:#C0D8FB;" d="M1316.04,735.208h-136.715c-6.276,0-11.411-5.135-11.411-11.411V591.845
			c0-6.276,5.135-11.411,11.411-11.411h136.715c6.276,0,11.411,5.135,11.411,11.411v131.953
			C1327.451,730.074,1322.316,735.208,1316.04,735.208z"/>
		<path style="fill:#DFEBFD;" d="M1310.117,728.503h-124.869c-5.732,0-10.422-4.69-10.422-10.422v-120.52
			c0-5.732,4.69-10.422,10.422-10.422h124.869c5.732,0,10.422,4.69,10.422,10.422v120.52
			C1320.54,723.813,1315.85,728.503,1310.117,728.503z"/>
		<g>
			<g>
				<path style="fill:#B7D3F3;" d="M1244.378,601.265c0-1.825,1.479-3.305,3.305-3.305s3.305,1.48,3.305,3.305
					c0,1.825-1.479,3.305-3.305,3.305S1244.378,603.089,1244.378,601.265z"/>
				<path style="fill:#B7D3F3;" d="M1271.044,605.935c0.887-1.596,2.898-2.17,4.494-1.284c1.595,0.887,2.17,2.899,1.283,4.494
					s-2.898,2.17-4.494,1.283C1270.732,609.542,1270.157,607.531,1271.044,605.935z"/>
				<path style="fill:#B7D3F3;" d="M1293.89,624.085c1.534-0.989,3.579-0.548,4.568,0.986c0.99,1.533,0.548,3.579-0.985,4.568
					c-1.534,0.989-3.579,0.548-4.568-0.985C1291.915,627.12,1292.356,625.075,1293.89,624.085z"/>
				<path style="fill:#B7D3F3;" d="M1305.206,652.178c1.825,0,3.305,1.479,3.305,3.304s-1.48,3.305-3.305,3.305
					c-1.825,0-3.305-1.479-3.305-3.305S1303.381,652.178,1305.206,652.178z"/>
				<path style="fill:#B7D3F3;" d="M1299.428,684.78c1.291,1.291,1.291,3.383,0,4.673c-1.291,1.291-3.383,1.291-4.673,0
					c-1.291-1.291-1.291-3.383,0-4.673C1296.045,683.489,1298.137,683.489,1299.428,684.78z"/>
				<path style="fill:#B7D3F3;" d="M1278.676,705.586c1.291,1.291,1.291,3.383,0,4.674c-1.291,1.29-3.383,1.29-4.674,0
					c-1.291-1.291-1.291-3.383,0-4.674C1275.293,704.295,1277.385,704.295,1278.676,705.586z"/>
				<path style="fill:#B7D3F3;" d="M1244.378,716.31c0-1.825,1.479-3.305,3.305-3.305s3.305,1.479,3.305,3.305
					c0,1.825-1.479,3.305-3.305,3.305S1244.378,718.136,1244.378,716.31z"/>
			</g>
			<g>
				<path style="fill:#B7D3F3;" d="M1224.216,605.935c-0.887-1.596-2.898-2.17-4.494-1.284c-1.596,0.887-2.17,2.899-1.284,4.494
					c0.887,1.595,2.899,2.17,4.494,1.283C1224.528,609.542,1225.103,607.531,1224.216,605.935z"/>
				<path style="fill:#B7D3F3;" d="M1201.37,624.085c-1.533-0.989-3.579-0.548-4.568,0.986c-0.989,1.533-0.548,3.579,0.985,4.568
					c1.534,0.989,3.579,0.548,4.568-0.985C1203.345,627.12,1202.904,625.075,1201.37,624.085z"/>
				<path style="fill:#B7D3F3;" d="M1190.054,652.178c-1.825,0-3.305,1.479-3.305,3.304s1.479,3.305,3.305,3.305
					s3.305-1.479,3.305-3.305S1191.879,652.178,1190.054,652.178z"/>
				<path style="fill:#B7D3F3;" d="M1195.832,684.78c-1.291,1.291-1.291,3.383,0,4.673c1.291,1.291,3.383,1.291,4.674,0
					c1.291-1.291,1.291-3.383,0-4.673C1199.215,683.489,1197.123,683.489,1195.832,684.78z"/>
				<path style="fill:#B7D3F3;" d="M1216.584,705.586c-1.29,1.291-1.29,3.383,0,4.674c1.291,1.29,3.383,1.29,4.674,0
					c1.291-1.291,1.291-3.383,0-4.674C1219.967,704.295,1217.875,704.295,1216.584,705.586z"/>
			</g>
		</g>
		<g>
			<path style="fill:#B7D3F3;" d="M1246.792,655.482c0-1.825,1.479-3.304,3.305-3.304c1.826,0,3.305,1.479,3.305,3.304
				s-1.479,3.305-3.305,3.305C1248.271,658.787,1246.792,657.308,1246.792,655.482z"/>
			<g>
				<rect x="1249.645" y="614.198" style="fill:#B7D3F3;" width="0.903" height="41.285"/>
			</g>
			<g>
				
					<rect x="1246.711" y="645.48" transform="matrix(0.7866 -0.6174 0.6174 0.7866 -130.3888 916.37)" style="fill:#B7D3F3;" width="27.825" height="2.707"/>
			</g>
		</g>
	</g>
	<rect x="359.919" y="513.102" style="fill:#FFFFFF;" width="678.787" height="148.789"/>
	<rect x="359.919" y="869.358" style="fill:#ABC8F7;" width="678.787" height="14.886"/>
	<rect x="1476.621" y="700.384" style="fill:#DCE9FB;" width="678.787" height="1088.488"/>
	<rect x="1471.272" y="513.102" style="fill:#FFFFFF;" width="678.787" height="148.789"/>
	<rect x="1476.621" y="865.042" style="fill:#ABC8F7;" width="678.787" height="14.886"/>
	<rect x="1476.621" y="1066.54" style="fill:#ABC8F7;" width="678.787" height="14.886"/>
	<rect x="1471.272" y="1244.497" style="fill:#ABC8F7;" width="678.787" height="14.886"/>
	<rect x="1476.621" y="1438.141" style="fill:#ABC8F7;" width="678.787" height="14.886"/>
	<rect x="1476.621" y="1629.851" style="fill:#ABC8F7;" width="678.787" height="14.886"/>
	<rect x="2308.756" y="699.328" style="fill:#DCE9FB;" width="678.787" height="1088.489"/>
	<g>
		<rect x="796.095" y="812.578" style="fill:#FFA561;" width="70.703" height="56.78"/>
		<rect x="796.095" y="822.398" style="fill:#FFFFFF;" width="38.438" height="8.137"/>
	</g>
	<g>
		<rect x="912.246" y="812.578" style="fill:#FFA561;" width="70.703" height="56.78"/>
		<rect x="912.246" y="822.398" style="fill:#FFFFFF;" width="38.438" height="8.137"/>
	</g>
	<g>
		<g>
			<rect x="383.461" y="823.791" style="fill:#AEC3FF;" width="83.037" height="45.596"/>
			<rect x="383.461" y="831.677" style="fill:#FFFFFF;" width="45.143" height="6.534"/>
		</g>
		<g>
			<polygon style="fill:#FFFFFF;" points="498.333,798.133 498.135,802.199 495.15,864.694 483.288,864.694 478.233,802.199 
				477.903,798.133 			"/>
			<polygon style="fill:#EBF3FA;" points="498.333,798.133 498.135,802.199 478.233,802.199 477.903,798.133 			"/>
			<rect x="482.836" y="859.111" style="fill:#AEC3FF;" width="12.531" height="10.276"/>
			<rect x="488.351" y="841.71" style="fill:#CDE0FB;" width="0.878" height="13.867"/>
		</g>
	</g>
	<g>
		<g>
			<rect x="521.007" y="823.791" style="fill:#FFA561;" width="83.037" height="45.596"/>
			<rect x="521.007" y="831.677" style="fill:#FFFFFF;" width="45.143" height="6.534"/>
		</g>
		<g>
			<polygon style="fill:#FFA561;" points="635.878,798.133 635.681,802.199 632.695,864.694 620.833,864.694 615.778,802.199 
				615.449,798.133 			"/>
			<polygon style="fill:#E2884B;" points="635.878,798.133 635.681,802.199 615.778,802.199 615.449,798.133 			"/>
			<rect x="620.381" y="859.111" style="fill:#FFFFFF;" width="12.531" height="10.276"/>
		</g>
	</g>
	<g>
		<g>
			<rect x="656.412" y="823.791" style="fill:#AEC3FF;" width="83.037" height="45.596"/>
			<rect x="656.412" y="831.677" style="fill:#FFFFFF;" width="45.143" height="6.534"/>
		</g>
		<g>
			<polygon style="fill:#FFFFFF;" points="771.283,798.133 771.085,802.199 768.1,864.694 756.238,864.694 751.183,802.199 
				750.853,798.133 			"/>
			<polygon style="fill:#EBF3FA;" points="771.283,798.133 771.085,802.199 751.183,802.199 750.853,798.133 			"/>
			<rect x="755.786" y="859.111" style="fill:#AEC3FF;" width="12.531" height="10.276"/>
			<rect x="761.301" y="841.71" style="fill:#CDE0FB;" width="0.878" height="13.867"/>
		</g>
	</g>
	<g>
		<rect x="1996.237" y="1020.944" style="fill:#FFA561;" width="83.036" height="45.596"/>
		<rect x="1996.237" y="1028.83" style="fill:#FFFFFF;" width="45.143" height="6.534"/>
		<g>
			<polygon style="fill:#FFFFFF;" points="2111.108,995.286 2110.911,999.352 2107.926,1061.848 2096.063,1061.848 
				2091.008,999.352 2090.679,995.286 			"/>
			<polygon style="fill:#EBF3FA;" points="2111.108,995.286 2110.911,999.352 2091.008,999.352 2090.679,995.286 			"/>
			<rect x="2095.611" y="1056.264" style="fill:#AEC3FF;" width="12.531" height="10.276"/>
			<rect x="2101.127" y="1038.863" style="fill:#CDE0FB;" width="0.878" height="13.867"/>
		</g>
	</g>
	<g>
		<g>
			<rect x="1849.398" y="1020.944" style="fill:#AEC3FF;" width="83.036" height="45.596"/>
			<rect x="1849.398" y="1028.83" style="fill:#FFFFFF;" width="45.143" height="6.534"/>
		</g>
		<g>
			<polygon style="fill:#FFFFFF;" points="1964.27,995.286 1964.072,999.352 1961.086,1061.848 1949.224,1061.848 1944.169,999.352 
				1943.84,995.286 			"/>
			<polygon style="fill:#EBF3FA;" points="1964.27,995.286 1964.072,999.352 1944.169,999.352 1943.84,995.286 			"/>
			<rect x="1948.772" y="1056.264" style="fill:#AEC3FF;" width="12.531" height="10.276"/>
			<rect x="1954.287" y="1038.863" style="fill:#CDE0FB;" width="0.879" height="13.867"/>
		</g>
	</g>
	<g>
		<g>
			<rect x="1996.237" y="1584.121" style="fill:#AEC3FF;" width="83.036" height="45.597"/>
			<rect x="1996.237" y="1592.007" style="fill:#FFFFFF;" width="45.143" height="6.534"/>
		</g>
		<g>
			<polygon style="fill:#FFFFFF;" points="2111.108,1558.463 2110.911,1562.529 2107.926,1625.024 2096.063,1625.024 
				2091.008,1562.529 2090.679,1558.463 			"/>
			<polygon style="fill:#EBF3FA;" points="2111.108,1558.463 2110.911,1562.529 2091.008,1562.529 2090.679,1558.463 			"/>
			<rect x="2095.611" y="1619.441" style="fill:#AEC3FF;" width="12.531" height="10.276"/>
			<rect x="2101.127" y="1602.041" style="fill:#CDE0FB;" width="0.878" height="13.867"/>
		</g>
	</g>
	<g>
		<g>
			<rect x="1849.398" y="1584.121" style="fill:#AEC3FF;" width="83.036" height="45.597"/>
			<rect x="1849.398" y="1592.007" style="fill:#FFFFFF;" width="45.143" height="6.534"/>
		</g>
		<g>
			<polygon style="fill:#FFFFFF;" points="1964.27,1558.463 1964.072,1562.529 1961.086,1625.024 1949.224,1625.024 
				1944.169,1562.529 1943.84,1558.463 			"/>
			<polygon style="fill:#EBF3FA;" points="1964.27,1558.463 1964.072,1562.529 1944.169,1562.529 1943.84,1558.463 			"/>
			<rect x="1948.772" y="1619.441" style="fill:#AEC3FF;" width="12.531" height="10.276"/>
			<rect x="1954.287" y="1602.041" style="fill:#CDE0FB;" width="0.879" height="13.867"/>
		</g>
	</g>
	<g>
		<g>
			<rect x="1704.108" y="1020.944" style="fill:#AEC3FF;" width="83.037" height="45.596"/>
			<rect x="1704.108" y="1028.83" style="fill:#FFFFFF;" width="45.144" height="6.534"/>
		</g>
		<g>
			<polygon style="fill:#FFFFFF;" points="1818.98,995.286 1818.782,999.352 1815.797,1061.848 1803.935,1061.848 1798.88,999.352 
				1798.551,995.286 			"/>
			<polygon style="fill:#EBF3FA;" points="1818.98,995.286 1818.782,999.352 1798.88,999.352 1798.551,995.286 			"/>
			<rect x="1803.483" y="1056.264" style="fill:#AEC3FF;" width="12.531" height="10.276"/>
			<rect x="1808.998" y="1038.863" style="fill:#CDE0FB;" width="0.879" height="13.867"/>
		</g>
	</g>
	<rect x="566.501" y="562.785" style="fill:#CDE0FB;" width="230.584" height="18.104"/>
	<rect x="543.623" y="593.877" style="fill:#CDE0FB;" width="276.341" height="18.104"/>
	<rect x="1695.374" y="562.785" style="fill:#CDE0FB;" width="230.584" height="18.104"/>
	<rect x="1672.495" y="593.877" style="fill:#CDE0FB;" width="276.341" height="18.104"/>
	<g>
		<rect x="2296.658" y="513.102" style="fill:#FFFFFF;" width="678.788" height="148.789"/>
		<rect x="2520.76" y="562.785" style="fill:#CDE0FB;" width="230.584" height="18.104"/>
		<rect x="2497.882" y="593.877" style="fill:#CDE0FB;" width="276.341" height="18.104"/>
	</g>
	<rect x="428.604" y="869.358" style="fill:#FFFFFF;" width="45.111" height="25.173"/>
	<rect x="566.15" y="869.358" style="fill:#FFFFFF;" width="45.111" height="25.173"/>
	<g>
		<g>
			<g>
				<path style="opacity:0.5;fill:#C0D8FB;" d="M410.096,1068.674l-14.665-0.004l-7.757-0.002c-3.011-0.002-5.472-2.466-5.472-5.478
					l0.017-54.189c0.001-3.01,2.463-5.474,5.475-5.472l6.879,0.002l15.543,0.005c3.011,0,5.472,2.464,5.472,5.476l-0.016,54.189
					C415.571,1066.211,413.108,1068.675,410.096,1068.674z"/>
				<path style="fill:#AFCDFB;" d="M413.206,1053.312l-0.389-2.853l0,0l-0.389-2.853c-0.1-0.728-0.488-1.35-1.033-1.764
					c-0.545-0.415-1.247-0.623-1.976-0.523c-0.081,0.011-0.159,0.027-0.237,0.045c0.267-0.386,0.418-0.821,0.46-1.263
					c0.495,1.187,1.796,1.881,3.085,1.572c1.43-0.342,2.319-1.791,1.977-3.221l-0.67-2.8l0,0l-0.67-2.8
					c-0.171-0.715-0.619-1.295-1.203-1.653c-0.584-0.358-1.303-0.495-2.018-0.324c-1.43,0.342-2.319,1.792-1.977,3.221l1.009,4.219
					c-0.153-0.22-0.341-0.42-0.564-0.591c-0.46-0.354-1.002-0.529-1.543-0.544c0.265-0.343,0.44-0.741,0.517-1.158
					c0.1-0.544,0.03-1.118-0.22-1.639c0.302-1.001,0.001-2.135-0.852-2.84l-4.439-3.668c-1.133-0.937-2.825-0.775-3.762,0.357
					c-0.866,1.049-0.792,2.573,0.121,3.538c-0.235-0.001-0.475,0.026-0.712,0.092l-2.777,0.76l0,0l-2.776,0.76
					c-0.967,0.264-1.665,1.034-1.889,1.946l-0.292-0.698l0,0l-1.109-2.655c-0.567-1.356-2.139-2.003-3.496-1.437
					c-1.357,0.567-2.003,2.14-1.436,3.496l1.109,2.656l0,0l0.711,1.702c-0.942,0.376-1.634,1.272-1.688,2.347l-0.145,2.875l0,0
					l-0.146,2.876c-0.037,0.733,0.23,1.416,0.689,1.924c0.46,0.509,1.111,0.843,1.845,0.88c0.313,0.016,0.617-0.026,0.902-0.113
					c-0.277,0.556-0.354,1.196-0.212,1.807c-0.493,0.284-0.9,0.724-1.133,1.287l-1.099,2.66l0,0l-1.1,2.661
					c-0.28,0.678-0.258,1.411,0.005,2.044c0.263,0.632,0.765,1.165,1.444,1.446c1.06,0.438,2.247,0.135,2.985-0.663
					c0.174,0.411,0.452,0.785,0.831,1.075c1.168,0.894,2.853,0.669,3.746-0.498l1.75-2.286l0,0l1.75-2.286
					c0.237-0.311,0.394-0.658,0.476-1.018c0.609,0.061,1.241-0.083,1.781-0.455l0.458-0.316l-0.635,0.829l0,0l-1.75,2.286
					c-0.894,1.167-0.67,2.853,0.498,3.746s2.853,0.67,3.746-0.498l1.75-2.285l0,0l1.75-2.286c0.022-0.03,0.041-0.062,0.063-0.091
					c0.141,0.228,0.314,0.429,0.512,0.603l-0.623,0.813c-0.894,1.168-0.67,2.853,0.498,3.746c1.167,0.895,2.852,0.67,3.746-0.497
					l3.5-4.572c0.446-0.583,0.614-1.297,0.523-1.976c-0.09-0.68-0.438-1.324-1.021-1.771c-0.2-0.153-0.415-0.271-0.639-0.359
					c0.033-0.003,0.065-0.004,0.098-0.008C412.376,1056.121,413.405,1054.768,413.206,1053.312z M389.124,1050.761l0.05-0.98
					c0.169,0.285,0.391,0.544,0.669,0.757c0.104,0.079,0.214,0.147,0.326,0.209l-1.224,0.845
					C389.046,1051.332,389.11,1051.053,389.124,1050.761z M407.132,1048.328l0.523,3.836c-0.227-0.461-0.578-0.84-1.002-1.1
					c-0.517-0.317-1.14-0.461-1.772-0.371c0.273-0.166,0.522-0.382,0.728-0.65l1.502-1.963
					C407.115,1048.162,407.121,1048.245,407.132,1048.328z M401.054,1037.967l0.673,0.557l-0.693,0.478
					C401.107,1038.668,401.118,1038.318,401.054,1037.967z M401.635,1046.441c-0.068-0.416-0.233-0.803-0.474-1.135
					c0.199-0.074,0.393-0.171,0.575-0.297l2.106-1.453L401.635,1046.441z M403.383,1051.441c-0.565-0.472-1.297-0.687-2.015-0.607
					l0.057-0.72c0.127,0.155,0.272,0.299,0.438,0.426c0.592,0.453,1.316,0.618,2.003,0.52
					C403.689,1051.168,403.528,1051.297,403.383,1051.441z M397.999,1041.328c-0.587,0.884-0.617,2.075,0.021,2.999
					c0.011,0.017,0.025,0.031,0.037,0.048c-0.194,0.074-0.378,0.17-0.549,0.285c0.121-0.381,0.157-0.78,0.105-1.169
					c-0.09-0.679-0.438-1.324-1.021-1.771c-0.003-0.002-0.005-0.004-0.008-0.006L397.999,1041.328z M395.339,1047.753l1.031-1.346
					c-0.015,0.083-0.026,0.167-0.033,0.253l-0.196,2.472c-0.386-0.349-0.859-0.571-1.357-0.653L395.339,1047.753L395.339,1047.753z
					 M390.515,1059.048l0.302-0.731c0.221-0.534,0.251-1.101,0.128-1.626c0.061-0.035,0.123-0.07,0.182-0.111l4.74-3.27
					c0.031-0.021,0.058-0.045,0.087-0.066c0.064,0.26,0.167,0.505,0.301,0.731l-0.844,0.582c-0.568,0.391-0.934,0.968-1.08,1.594
					c-0.891-0.086-1.807,0.271-2.387,1.029L390.515,1059.048z M403.088,1055.754l0.148,0.618c-0.238-0.106-0.487-0.177-0.74-0.21
					L403.088,1055.754z M408.733,1056.378l-0.206-0.86l0,0l-0.039-0.164c0.289,0.354,0.665,0.632,1.092,0.802
					C409.288,1056.184,409.001,1056.257,408.733,1056.378z M392.546,1042.61l-1.45,1.895l0,0l-1.75,2.285
					c-0.008,0.011-0.014,0.022-0.022,0.032l0.092-1.812c0.003-0.047,0-0.093,0-0.139c0.082-0.025,0.164-0.054,0.245-0.088
					c1.088-0.454,1.717-1.557,1.631-2.675C391.658,1042.378,392.089,1042.553,392.546,1042.61z"/>
				<path style="opacity:0.5;fill:#AFCDFB;" d="M395.431,1068.67l-7.757-0.002c-3.011-0.002-5.472-2.466-5.472-5.478l0.017-54.189
					c0.001-3.01,2.463-5.474,5.475-5.472l6.879,0.002c0.568,0.974,0.899,2.138,0.898,3.385l-0.018,61.207
					C395.454,1068.308,395.446,1068.49,395.431,1068.67z"/>
				<path style="fill:#F99746;" d="M415.228,1006.091l-20.828-0.007l-11.821-0.004c-0.586,0.001-1.064-0.479-1.063-1.065
					l0.001-5.103c0.001-0.585,0.479-1.064,1.065-1.064l11.804,0.004c0.001,0,0.001,0,0.003,0l20.842,0.006
					c0.585,0,1.064,0.479,1.064,1.065l-0.001,5.103C416.293,1005.611,415.814,1006.091,415.228,1006.091z"/>
				<path style="fill:#EF7E29;" d="M394.401,1006.084l-11.821-0.004c-0.586,0.001-1.064-0.479-1.063-1.065l0.001-5.103
					c0.001-0.585,0.479-1.064,1.065-1.064l11.804,0.004c0.001,0,0.001,0,0.003,0c0.583,0.001,1.061,0.48,1.061,1.064l-0.001,5.103
					C395.448,1005.601,394.979,1006.076,394.401,1006.084z"/>
			</g>
		</g>
		<g>
			<g>
				<path style="opacity:0.5;fill:#C0D8FB;" d="M467.517,1068.674l-14.665-0.004l-7.757-0.002c-3.01-0.002-5.472-2.466-5.472-5.478
					l0.017-54.189c0-3.01,2.463-5.474,5.475-5.472l6.879,0.002l15.543,0.005c3.01,0,5.472,2.464,5.472,5.476l-0.016,54.189
					C472.991,1066.211,470.528,1068.675,467.517,1068.674z"/>
				<path style="fill:#AFCDFB;" d="M470.626,1053.312l-0.389-2.853l0,0l-0.389-2.853c-0.099-0.728-0.488-1.35-1.033-1.764
					c-0.545-0.415-1.247-0.623-1.975-0.523c-0.081,0.011-0.159,0.027-0.237,0.045c0.267-0.386,0.418-0.821,0.459-1.263
					c0.495,1.187,1.797,1.881,3.086,1.572c1.43-0.342,2.319-1.791,1.977-3.221l-0.67-2.8l0,0l-0.67-2.8
					c-0.171-0.715-0.62-1.295-1.203-1.653c-0.583-0.358-1.303-0.495-2.018-0.324c-1.43,0.342-2.319,1.792-1.977,3.221l1.01,4.219
					c-0.153-0.22-0.341-0.42-0.565-0.591c-0.46-0.354-1.001-0.529-1.543-0.544c0.265-0.343,0.44-0.741,0.516-1.158
					c0.1-0.544,0.03-1.118-0.22-1.639c0.303-1.001,0.001-2.135-0.852-2.84l-4.438-3.668c-1.133-0.937-2.826-0.775-3.762,0.357
					c-0.866,1.049-0.792,2.573,0.12,3.538c-0.235-0.001-0.474,0.026-0.712,0.092l-2.777,0.76l0,0l-2.776,0.76
					c-0.966,0.264-1.664,1.034-1.889,1.946l-0.292-0.698l0,0l-1.109-2.655c-0.567-1.356-2.139-2.003-3.496-1.437
					c-1.357,0.567-2.003,2.14-1.436,3.496l1.11,2.656l0,0l0.711,1.702c-0.942,0.376-1.634,1.272-1.688,2.347l-0.146,2.875l0,0
					l-0.145,2.876c-0.037,0.733,0.23,1.416,0.689,1.924c0.46,0.509,1.111,0.843,1.845,0.88c0.314,0.016,0.617-0.026,0.902-0.113
					c-0.276,0.556-0.353,1.196-0.212,1.807c-0.493,0.284-0.9,0.724-1.133,1.287l-1.1,2.66l0,0l-1.1,2.661
					c-0.281,0.678-0.258,1.411,0.005,2.044c0.263,0.632,0.765,1.165,1.444,1.446c1.06,0.438,2.246,0.135,2.984-0.663
					c0.174,0.411,0.452,0.785,0.831,1.075c1.168,0.894,2.853,0.669,3.747-0.498l1.75-2.286l0,0l1.75-2.286
					c0.238-0.311,0.394-0.658,0.477-1.018c0.608,0.061,1.24-0.083,1.781-0.455l0.458-0.316l-0.635,0.829l0,0l-1.75,2.286
					c-0.894,1.167-0.67,2.853,0.498,3.746c1.167,0.894,2.853,0.67,3.747-0.498l1.749-2.285l0,0l1.751-2.286
					c0.022-0.03,0.041-0.062,0.062-0.091c0.141,0.228,0.315,0.429,0.512,0.603l-0.623,0.813c-0.894,1.168-0.67,2.853,0.497,3.746
					c1.168,0.895,2.853,0.67,3.747-0.497l3.5-4.572c0.446-0.583,0.613-1.297,0.523-1.976c-0.09-0.68-0.438-1.324-1.021-1.771
					c-0.199-0.153-0.415-0.271-0.638-0.359c0.032-0.003,0.064-0.004,0.097-0.008
					C469.797,1056.121,470.825,1054.768,470.626,1053.312z M446.545,1050.761l0.049-0.98c0.169,0.285,0.392,0.544,0.67,0.757
					c0.104,0.079,0.214,0.147,0.326,0.209l-1.224,0.845C446.466,1051.332,446.53,1051.053,446.545,1050.761z M464.553,1048.328
					l0.523,3.836c-0.227-0.461-0.578-0.84-1.001-1.1c-0.517-0.317-1.14-0.461-1.772-0.371c0.273-0.166,0.522-0.382,0.728-0.65
					l1.502-1.963C464.535,1048.162,464.541,1048.245,464.553,1048.328z M458.475,1037.967l0.673,0.557l-0.693,0.478
					C458.528,1038.668,458.538,1038.318,458.475,1037.967z M459.056,1046.441c-0.069-0.416-0.233-0.803-0.474-1.135
					c0.199-0.074,0.393-0.171,0.575-0.297l2.106-1.453L459.056,1046.441z M460.803,1051.441c-0.564-0.472-1.297-0.687-2.015-0.607
					l0.057-0.72c0.127,0.155,0.271,0.299,0.438,0.426c0.591,0.453,1.316,0.618,2.003,0.52
					C461.109,1051.168,460.948,1051.297,460.803,1051.441z M455.42,1041.328c-0.587,0.884-0.617,2.075,0.02,2.999
					c0.012,0.017,0.025,0.031,0.037,0.048c-0.194,0.074-0.378,0.17-0.549,0.285c0.122-0.381,0.157-0.78,0.106-1.169
					c-0.09-0.679-0.437-1.324-1.021-1.771c-0.002-0.002-0.005-0.004-0.008-0.006L455.42,1041.328z M452.76,1047.753l1.031-1.346
					c-0.015,0.083-0.026,0.167-0.033,0.253l-0.195,2.472c-0.386-0.349-0.859-0.571-1.357-0.653L452.76,1047.753L452.76,1047.753z
					 M447.935,1059.048l0.303-0.731c0.221-0.534,0.252-1.101,0.128-1.626c0.061-0.035,0.122-0.07,0.181-0.111l4.74-3.27
					c0.03-0.021,0.058-0.045,0.087-0.066c0.064,0.26,0.166,0.505,0.301,0.731l-0.844,0.582c-0.568,0.391-0.934,0.968-1.08,1.594
					c-0.891-0.086-1.806,0.271-2.387,1.029L447.935,1059.048z M460.508,1055.754l0.148,0.618c-0.238-0.106-0.488-0.177-0.74-0.21
					L460.508,1055.754z M466.153,1056.378l-0.206-0.86l0,0l-0.04-0.164c0.29,0.354,0.665,0.632,1.092,0.802
					C466.708,1056.184,466.422,1056.257,466.153,1056.378z M449.966,1042.61l-1.45,1.895l0,0l-1.75,2.285
					c-0.008,0.011-0.014,0.022-0.022,0.032l0.092-1.812c0.002-0.047,0-0.093,0-0.139c0.083-0.025,0.164-0.054,0.245-0.088
					c1.088-0.454,1.717-1.557,1.632-2.675C449.079,1042.378,449.51,1042.553,449.966,1042.61z"/>
				<path style="opacity:0.5;fill:#AFCDFB;" d="M452.852,1068.67l-7.757-0.002c-3.01-0.002-5.472-2.466-5.472-5.478l0.017-54.189
					c0-3.01,2.463-5.474,5.475-5.472l6.879,0.002c0.568,0.974,0.899,2.138,0.898,3.385l-0.018,61.207
					C452.873,1068.308,452.866,1068.49,452.852,1068.67z"/>
				<path style="fill:#F99746;" d="M472.649,1006.091l-20.828-0.007L440,1006.08c-0.586,0.001-1.064-0.479-1.064-1.065l0.001-5.103
					c0-0.585,0.479-1.064,1.065-1.064l11.804,0.004c0.001,0,0.001,0,0.003,0l20.842,0.006c0.585,0,1.064,0.479,1.064,1.065
					l-0.001,5.103C473.713,1005.611,473.235,1006.091,472.649,1006.091z"/>
				<path style="fill:#EF7E29;" d="M451.821,1006.084L440,1006.08c-0.586,0.001-1.064-0.479-1.064-1.065l0.001-5.103
					c0-0.585,0.479-1.064,1.065-1.064l11.804,0.004c0.001,0,0.001,0,0.003,0c0.583,0.001,1.061,0.48,1.061,1.064l-0.001,5.103
					C452.869,1005.601,452.399,1006.076,451.821,1006.084z"/>
			</g>
		</g>
		<rect x="359.919" y="1068.868" style="fill:#ABC8F7;" width="678.787" height="14.886"/>
		<g>
			<rect x="499.852" y="1012.088" style="fill:#FFA561;" width="70.704" height="56.78"/>
			<rect x="499.852" y="1021.907" style="fill:#FFFFFF;" width="38.438" height="8.137"/>
		</g>
		<g>
			<rect x="600.26" y="1012.12" style="fill:#AEC3FF;" width="103.287" height="56.716"/>
			<rect x="600.26" y="1021.929" style="fill:#FFFFFF;" width="56.152" height="8.127"/>
		</g>
		<g>
			<rect x="734.003" y="1042.319" style="fill:#AEC3FF;" width="70.623" height="26.517"/>
			<rect x="734.003" y="1046.905" style="fill:#FFFFFF;" width="38.394" height="3.8"/>
		</g>
		<g>
			<rect x="831.487" y="1042.319" style="fill:#AEC3FF;" width="70.623" height="26.517"/>
			<rect x="831.487" y="1046.905" style="fill:#FFFFFF;" width="38.394" height="3.8"/>
		</g>
		<g>
			<path style="fill:#EBF3FA;" d="M970.9,1068.868h-15.854c-4.573,0-8.281-3.708-8.281-8.281v-37.977
				c0-4.573,3.708-8.281,8.281-8.281H970.9c4.573,0,8.28,3.708,8.28,8.281v37.977C979.181,1065.16,975.474,1068.868,970.9,1068.868z
				"/>
			<rect x="955.708" y="1009.635" style="fill:#FFA561;" width="12.966" height="4.694"/>
			<rect x="946.766" y="1032.437" style="fill:#FFFFFF;" width="32.415" height="14.531"/>
		</g>
		<g>
			<path style="fill:#EBF3FA;" d="M1011.571,1068.868h-9.544c-2.754,0-4.985-2.232-4.985-4.985v-22.864
				c0-2.753,2.231-4.985,4.985-4.985h9.544c2.753,0,4.985,2.232,4.985,4.985v22.864
				C1016.557,1066.636,1014.325,1068.868,1011.571,1068.868z"/>
			<rect x="1002.425" y="1033.207" style="fill:#FFA561;" width="7.806" height="2.826"/>
			<rect x="997.042" y="1046.935" style="fill:#FFFFFF;" width="19.515" height="8.748"/>
		</g>
		<rect x="400.827" y="1069.196" style="fill:#FFFFFF;" width="45.111" height="25.173"/>
		<rect x="532.507" y="1069.196" style="fill:#FFFFFF;" width="45.111" height="25.173"/>
		<rect x="629.348" y="1069.196" style="fill:#FFFFFF;" width="45.111" height="25.173"/>
		<rect x="773.54" y="1069.196" style="fill:#FFFFFF;" width="45.111" height="25.173"/>
		<rect x="956.625" y="1069.196" style="fill:#FFFFFF;" width="45.111" height="25.173"/>
	</g>
	<g>
		<rect x="359.919" y="1274.738" style="fill:#ABC8F7;" width="678.787" height="14.886"/>
		<g>
			<g>
				<rect x="396.471" y="1229.143" style="fill:#AEC3FF;" width="83.037" height="45.596"/>
				<rect x="396.471" y="1237.027" style="fill:#FFFFFF;" width="45.143" height="6.534"/>
			</g>
			<g>
				<polygon style="fill:#FFFFFF;" points="463.424,1219.88 463.424,1229.14 398.84,1229.14 401.806,1208.974 428.661,1213.725 				
					"/>
				<polygon style="fill:#EBF3FA;" points="463.424,1219.88 463.424,1229.14 428.661,1229.14 428.661,1213.725 				"/>
				<polygon style="fill:#E6F1FF;" points="405.791,1209.682 402.794,1229.143 398.84,1229.143 401.806,1208.976 				"/>
				<polygon style="fill:#FFA561;" points="457.122,1218.768 465.841,1219.63 465.841,1229.143 457.122,1229.143 				"/>
			</g>
		</g>
		<g>
			<g>
				<rect x="517.224" y="1229.143" style="fill:#AEC3FF;" width="83.036" height="45.596"/>
				<rect x="517.224" y="1237.027" style="fill:#FFFFFF;" width="45.143" height="6.534"/>
			</g>
			<g>
				<polygon style="fill:#FFFFFF;" points="589.826,1219.88 589.826,1229.14 525.242,1229.14 528.207,1208.974 555.062,1213.725 
									"/>
				<polygon style="fill:#EBF3FA;" points="589.826,1219.88 589.826,1229.14 555.062,1229.14 555.062,1213.725 				"/>
				<polygon style="fill:#E6F1FF;" points="532.192,1209.682 529.196,1229.143 525.242,1229.143 528.207,1208.976 				"/>
				<polygon style="fill:#FFA561;" points="583.523,1218.768 592.242,1219.63 592.242,1229.143 583.523,1229.143 				"/>
			</g>
		</g>
		<rect x="569.686" y="1274.627" style="fill:#FFFFFF;" width="45.111" height="25.174"/>
	</g>
	<rect x="699.313" y="869.358" style="fill:#FFFFFF;" width="45.111" height="25.173"/>
	<rect x="2009.291" y="865.042" style="fill:#FFFFFF;" width="45.11" height="25.173"/>
	<rect x="2009.291" y="1066.54" style="fill:#FFFFFF;" width="45.11" height="25.174"/>
	<rect x="1854.635" y="1066.54" style="fill:#FFFFFF;" width="45.111" height="25.174"/>
	<rect x="2313.074" y="1066.54" style="fill:#ABC8F7;" width="678.787" height="14.886"/>
	<g>
		<g>
			<rect x="2832.689" y="1020.944" style="fill:#AEC3FF;" width="83.037" height="45.596"/>
			<rect x="2832.689" y="1028.83" style="fill:#FFFFFF;" width="45.144" height="6.534"/>
		</g>
		<g>
			<polygon style="fill:#FFFFFF;" points="2947.562,995.286 2947.363,999.352 2944.379,1061.848 2932.516,1061.848 
				2927.461,999.352 2927.132,995.286 			"/>
			<polygon style="fill:#EBF3FA;" points="2947.562,995.286 2947.363,999.352 2927.461,999.352 2927.132,995.286 			"/>
			<rect x="2932.064" y="1056.264" style="fill:#AEC3FF;" width="12.531" height="10.276"/>
			<rect x="2937.58" y="1038.863" style="fill:#CDE0FB;" width="0.878" height="13.867"/>
		</g>
	</g>
	<g>
		<g>
			<rect x="2568.946" y="1020.944" style="fill:#AEC3FF;" width="83.037" height="45.596"/>
			<rect x="2568.946" y="1028.83" style="fill:#FFFFFF;" width="45.144" height="6.534"/>
		</g>
		<g>
			<polygon style="fill:#FFFFFF;" points="2683.818,995.286 2683.62,999.352 2680.635,1061.848 2668.772,1061.848 2663.718,999.352 
				2663.389,995.286 			"/>
			<polygon style="fill:#EBF3FA;" points="2683.818,995.286 2683.62,999.352 2663.718,999.352 2663.389,995.286 			"/>
			<rect x="2668.321" y="1056.264" style="fill:#AEC3FF;" width="12.531" height="10.276"/>
			<rect x="2673.836" y="1038.863" style="fill:#CDE0FB;" width="0.879" height="13.867"/>
		</g>
	</g>
	<g>
		<g>
			<rect x="2349.606" y="1020.944" style="fill:#AEC3FF;" width="83.036" height="45.596"/>
			<rect x="2349.606" y="1028.83" style="fill:#FFFFFF;" width="45.143" height="6.534"/>
		</g>
	</g>
	<rect x="2845.744" y="1066.54" style="fill:#FFFFFF;" width="45.11" height="25.174"/>
	<rect x="2368.569" y="1066.54" style="fill:#FFFFFF;" width="45.11" height="25.174"/>
	<rect x="2607.156" y="1066.54" style="fill:#FFFFFF;" width="45.111" height="25.174"/>
	<rect x="1846.963" y="865.042" style="fill:#FFFFFF;" width="45.11" height="25.173"/>
	<rect x="831.447" y="869.358" style="fill:#FFFFFF;" width="45.111" height="25.173"/>
	<rect x="950.684" y="869.358" style="fill:#FFFFFF;" width="45.111" height="25.173"/>
	<g>
		<polygon style="fill:#163560;" points="943.116,1182.379 754.801,1182.379 728.964,1039.07 917.279,1039.07 		"/>
		<polygon style="fill:#1C468A;" points="940.102,1182.379 751.787,1182.379 725.95,1039.07 914.265,1039.07 		"/>
		<polygon style="fill:#163560;" points="842.858,1218.398 799.535,1218.398 809.009,1123.815 852.332,1123.815 		"/>
		<rect x="802.836" y="1215.679" style="fill:#163560;" width="61.147" height="2.72"/>
	</g>
	<g>
		<path style="fill:#AEC3FF;" d="M2087.158,1199.287v45.341h-45.715v-45.485c0-0.441,0.02-0.872,0.066-1.304
			c0.479-5.208,3.827-9.581,8.439-11.537c3.289-1.391,5.601-4.401,5.783-7.97l0.335-6.55h16.783l0.105,6.531
			c0.066,3.558,2.32,6.617,5.601,7.998c4.632,1.956,7.998,6.329,8.525,11.527C2087.13,1198.318,2087.158,1198.798,2087.158,1199.287
			z"/>
		<polygon style="fill:#2A4E96;" points="2074.049,1174.659 2054.47,1174.659 2054.989,1169.545 2073.529,1169.545 		"/>
		<path style="fill:#FFFFFF;" d="M2087.158,1199.287v29.239h-45.715v-29.384c0-0.441,0.02-0.872,0.066-1.304h45.572
			C2087.13,1198.318,2087.158,1198.798,2087.158,1199.287z"/>
	</g>
	<g>
		<g>
			<path style="fill:#AEC3FF;" d="M2118.469,819.701v45.342h-45.715v-45.485c0-0.441,0.02-0.873,0.067-1.304
				c0.479-5.208,3.826-9.581,8.438-11.537c3.29-1.391,5.601-4.402,5.783-7.969l0.336-6.55h16.782l0.105,6.531
				c0.067,3.558,2.32,6.617,5.601,7.998c4.632,1.957,7.998,6.33,8.525,11.527C2118.44,818.732,2118.469,819.212,2118.469,819.701z"
				/>
			<polygon style="fill:#2A4E96;" points="2105.359,795.074 2085.78,795.074 2086.3,789.959 2104.84,789.959 			"/>
			<path style="fill:#FFFFFF;" d="M2118.469,819.701v29.24h-45.715v-29.384c0-0.441,0.02-0.873,0.067-1.304h45.571
				C2118.44,818.732,2118.469,819.212,2118.469,819.701z"/>
		</g>
		<g>
			<path style="fill:#AEC3FF;" d="M2034.015,819.701v45.342h-45.716v-45.485c0-0.441,0.02-0.873,0.067-1.304
				c0.479-5.208,3.827-9.581,8.439-11.537c3.289-1.391,5.601-4.402,5.782-7.969l0.336-6.55h16.783l0.105,6.531
				c0.066,3.558,2.32,6.617,5.601,7.998c4.632,1.957,7.998,6.33,8.525,11.527C2033.986,818.732,2034.015,819.212,2034.015,819.701z"
				/>
			<polygon style="fill:#2A4E96;" points="2020.905,795.074 2001.326,795.074 2001.845,789.959 2020.386,789.959 			"/>
			<path style="fill:#FFFFFF;" d="M2034.015,819.701v29.24h-45.716v-29.384c0-0.441,0.02-0.873,0.067-1.304h45.572
				C2033.986,818.732,2034.015,819.212,2034.015,819.701z"/>
		</g>
		<g>
			<path style="fill:#AEC3FF;" d="M1951.522,819.701v45.342h-45.716v-45.485c0-0.441,0.02-0.873,0.066-1.304
				c0.48-5.208,3.827-9.581,8.439-11.537c3.29-1.391,5.602-4.402,5.783-7.969l0.336-6.55h16.782l0.105,6.531
				c0.067,3.558,2.32,6.617,5.601,7.998c4.632,1.957,7.998,6.33,8.525,11.527C1951.493,818.732,1951.522,819.212,1951.522,819.701z"
				/>
			<polygon style="fill:#2A4E96;" points="1938.412,795.074 1918.833,795.074 1919.353,789.959 1937.894,789.959 			"/>
			<path style="fill:#FFFFFF;" d="M1951.522,819.701v29.24h-45.716v-29.384c0-0.441,0.02-0.873,0.066-1.304h45.572
				C1951.493,818.732,1951.522,819.212,1951.522,819.701z"/>
		</g>
		<g>
			<path style="fill:#AEC3FF;" d="M1875.358,819.701v45.342h-45.715v-45.485c0-0.441,0.019-0.873,0.066-1.304
				c0.479-5.208,3.827-9.581,8.439-11.537c3.289-1.391,5.601-4.402,5.783-7.969l0.335-6.55h16.783l0.105,6.531
				c0.066,3.558,2.32,6.617,5.6,7.998c4.633,1.957,7.998,6.33,8.526,11.527C1875.33,818.732,1875.358,819.212,1875.358,819.701z"/>
			<polygon style="fill:#2A4E96;" points="1862.249,795.074 1842.67,795.074 1843.189,789.959 1861.729,789.959 			"/>
			<path style="fill:#FFFFFF;" d="M1875.358,819.701v29.24h-45.715v-29.384c0-0.441,0.019-0.873,0.066-1.304h45.572
				C1875.33,818.732,1875.358,819.212,1875.358,819.701z"/>
		</g>
		<g>
			<path style="fill:#AEC3FF;" d="M1803.487,830.754v34.289h-34.571v-34.397c0-0.333,0.015-0.66,0.051-0.986
				c0.363-3.938,2.894-7.245,6.383-8.724c2.486-1.052,4.234-3.329,4.373-6.027l0.254-4.953h12.69l0.08,4.939
				c0.051,2.69,1.755,5.004,4.235,6.048c3.503,1.479,6.049,4.787,6.447,8.717C1803.466,830.021,1803.487,830.384,1803.487,830.754z"
				/>
			<polygon style="fill:#2A4E96;" points="1793.574,812.13 1778.768,812.13 1779.16,808.262 1793.182,808.262 			"/>
			<path style="fill:#FFFFFF;" d="M1803.487,830.754v22.112h-34.571v-22.221c0-0.333,0.015-0.66,0.051-0.986h34.463
				C1803.466,830.021,1803.487,830.384,1803.487,830.754z"/>
		</g>
		<g>
			<path style="fill:#AEC3FF;" d="M1728.813,830.754v34.289h-34.571v-34.397c0-0.333,0.015-0.66,0.051-0.986
				c0.362-3.938,2.894-7.245,6.382-8.724c2.487-1.052,4.235-3.329,4.373-6.027l0.254-4.953h12.691l0.08,4.939
				c0.051,2.69,1.755,5.004,4.235,6.048c3.502,1.479,6.048,4.787,6.447,8.717C1728.792,830.021,1728.813,830.384,1728.813,830.754z"
				/>
			<polygon style="fill:#2A4E96;" points="1718.899,812.13 1704.093,812.13 1704.486,808.262 1718.507,808.262 			"/>
			<path style="fill:#FFFFFF;" d="M1728.813,830.754v22.112h-34.571v-22.221c0-0.333,0.015-0.66,0.051-0.986h34.463
				C1728.792,830.021,1728.813,830.384,1728.813,830.754z"/>
		</g>
		<g>
			<path style="fill:#AEC3FF;" d="M1643.122,830.754v34.289h-34.571v-34.397c0-0.333,0.015-0.66,0.051-0.986
				c0.362-3.938,2.894-7.245,6.382-8.724c2.487-1.052,4.235-3.329,4.373-6.027l0.254-4.953h12.691l0.08,4.939
				c0.051,2.69,1.755,5.004,4.235,6.048c3.503,1.479,6.048,4.787,6.447,8.717C1643.101,830.021,1643.122,830.384,1643.122,830.754z"
				/>
			<polygon style="fill:#2A4E96;" points="1633.209,812.13 1618.401,812.13 1618.795,808.262 1632.815,808.262 			"/>
			<path style="fill:#FFFFFF;" d="M1643.122,830.754v22.112h-34.571v-22.221c0-0.333,0.015-0.66,0.051-0.986h34.463
				C1643.101,830.021,1643.122,830.384,1643.122,830.754z"/>
		</g>
		<g>
			<path style="fill:#AEC3FF;" d="M1551.369,830.754v34.289h-34.571v-34.397c0-0.333,0.015-0.66,0.051-0.986
				c0.362-3.938,2.894-7.245,6.382-8.724c2.487-1.052,4.235-3.329,4.373-6.027l0.254-4.953h12.691l0.08,4.939
				c0.051,2.69,1.755,5.004,4.235,6.048c3.503,1.479,6.048,4.787,6.447,8.717C1551.348,830.021,1551.369,830.384,1551.369,830.754z"
				/>
			<polygon style="fill:#2A4E96;" points="1541.455,812.13 1526.648,812.13 1527.042,808.262 1541.063,808.262 			"/>
			<path style="fill:#FFFFFF;" d="M1551.369,830.754v22.112h-34.571v-22.221c0-0.333,0.015-0.66,0.051-0.986h34.462
				C1551.348,830.021,1551.369,830.384,1551.369,830.754z"/>
		</g>
	</g>
	<g>
		<g>
			<path style="fill:#AEC3FF;" d="M2951.277,1584.509v45.342h-45.715v-45.485c0-0.441,0.02-0.873,0.066-1.305
				c0.479-5.207,3.827-9.58,8.439-11.536c3.289-1.391,5.601-4.401,5.783-7.97l0.336-6.55h16.782l0.104,6.531
				c0.067,3.558,2.321,6.617,5.602,7.998c4.632,1.956,7.998,6.329,8.525,11.526
				C2951.249,1583.541,2951.277,1584.02,2951.277,1584.509z"/>
			<polygon style="fill:#2A4E96;" points="2938.168,1559.882 2918.589,1559.882 2919.107,1554.768 2937.648,1554.768 			"/>
			<path style="fill:#FFFFFF;" d="M2951.277,1584.509v29.24h-45.715v-29.384c0-0.441,0.02-0.873,0.066-1.305h45.572
				C2951.249,1583.541,2951.277,1584.02,2951.277,1584.509z"/>
		</g>
		<g>
			<path style="fill:#AEC3FF;" d="M2866.823,1584.509v45.342h-45.716v-45.485c0-0.441,0.02-0.873,0.067-1.305
				c0.479-5.207,3.826-9.58,8.439-11.536c3.289-1.391,5.601-4.401,5.783-7.97l0.335-6.55h16.783l0.104,6.531
				c0.067,3.558,2.321,6.617,5.601,7.998c4.633,1.956,7.998,6.329,8.525,11.526
				C2866.795,1583.541,2866.823,1584.02,2866.823,1584.509z"/>
			<polygon style="fill:#2A4E96;" points="2853.714,1559.882 2834.135,1559.882 2834.653,1554.768 2853.194,1554.768 			"/>
			<path style="fill:#FFFFFF;" d="M2866.823,1584.509v29.24h-45.716v-29.384c0-0.441,0.02-0.873,0.067-1.305h45.571
				C2866.795,1583.541,2866.823,1584.02,2866.823,1584.509z"/>
		</g>
		<g>
			<path style="fill:#AEC3FF;" d="M2784.33,1584.509v45.342h-45.715v-45.485c0-0.441,0.019-0.873,0.066-1.305
				c0.48-5.207,3.826-9.58,8.439-11.536c3.289-1.391,5.601-4.401,5.783-7.97l0.335-6.55h16.783l0.104,6.531
				c0.068,3.558,2.321,6.617,5.602,7.998c4.632,1.956,7.998,6.329,8.525,11.526C2784.302,1583.541,2784.33,1584.02,2784.33,1584.509
				z"/>
			<polygon style="fill:#2A4E96;" points="2771.221,1559.882 2751.642,1559.882 2752.16,1554.768 2770.701,1554.768 			"/>
			<path style="fill:#FFFFFF;" d="M2784.33,1584.509v29.24h-45.715v-29.384c0-0.441,0.019-0.873,0.066-1.305h45.572
				C2784.302,1583.541,2784.33,1584.02,2784.33,1584.509z"/>
		</g>
		<g>
			<path style="fill:#AEC3FF;" d="M2708.167,1584.509v45.342h-45.716v-45.485c0-0.441,0.02-0.873,0.067-1.305
				c0.479-5.207,3.827-9.58,8.439-11.536c3.289-1.391,5.601-4.401,5.782-7.97l0.336-6.55h16.782l0.106,6.531
				c0.066,3.558,2.32,6.617,5.6,7.998c4.633,1.956,7.998,6.329,8.525,11.526C2708.139,1583.541,2708.167,1584.02,2708.167,1584.509z
				"/>
			<polygon style="fill:#2A4E96;" points="2695.058,1559.882 2675.479,1559.882 2675.998,1554.768 2694.538,1554.768 			"/>
			<path style="fill:#FFFFFF;" d="M2708.167,1584.509v29.24h-45.716v-29.384c0-0.441,0.02-0.873,0.067-1.305h45.571
				C2708.139,1583.541,2708.167,1584.02,2708.167,1584.509z"/>
		</g>
		<g>
			<path style="fill:#AEC3FF;" d="M2636.296,1595.563v34.288h-34.571v-34.397c0-0.333,0.015-0.66,0.051-0.986
				c0.362-3.938,2.894-7.245,6.382-8.725c2.487-1.051,4.235-3.328,4.373-6.026l0.254-4.953h12.691l0.08,4.938
				c0.051,2.691,1.755,5.004,4.235,6.049c3.502,1.479,6.048,4.786,6.447,8.717
				C2636.274,1594.829,2636.296,1595.192,2636.296,1595.563z"/>
			<polygon style="fill:#2A4E96;" points="2626.383,1576.938 2611.575,1576.938 2611.969,1573.07 2625.989,1573.07 			"/>
			<path style="fill:#FFFFFF;" d="M2636.296,1595.563v22.111h-34.571v-22.221c0-0.333,0.015-0.66,0.051-0.986h34.463
				C2636.274,1594.829,2636.296,1595.192,2636.296,1595.563z"/>
		</g>
		<g>
			<path style="fill:#AEC3FF;" d="M2561.622,1595.563v34.288h-34.571v-34.397c0-0.333,0.015-0.66,0.051-0.986
				c0.362-3.938,2.894-7.245,6.382-8.725c2.487-1.051,4.235-3.328,4.373-6.026l0.254-4.953h12.691l0.079,4.938
				c0.051,2.691,1.756,5.004,4.236,6.049c3.502,1.479,6.048,4.786,6.447,8.717C2561.6,1594.829,2561.622,1595.192,2561.622,1595.563
				z"/>
			<polygon style="fill:#2A4E96;" points="2551.708,1576.938 2536.901,1576.938 2537.295,1573.07 2551.315,1573.07 			"/>
			<path style="fill:#FFFFFF;" d="M2561.622,1595.563v22.111h-34.571v-22.221c0-0.333,0.015-0.66,0.051-0.986h34.463
				C2561.6,1594.829,2561.622,1595.192,2561.622,1595.563z"/>
		</g>
		<g>
			<path style="fill:#AEC3FF;" d="M2475.931,1595.563v34.288h-34.571v-34.397c0-0.333,0.015-0.66,0.051-0.986
				c0.362-3.938,2.894-7.245,6.382-8.725c2.487-1.051,4.235-3.328,4.373-6.026l0.254-4.953h12.691l0.079,4.938
				c0.051,2.691,1.756,5.004,4.236,6.049c3.502,1.479,6.048,4.786,6.447,8.717
				C2475.908,1594.829,2475.931,1595.192,2475.931,1595.563z"/>
			<polygon style="fill:#2A4E96;" points="2466.017,1576.938 2451.211,1576.938 2451.604,1573.07 2465.624,1573.07 			"/>
			<path style="fill:#FFFFFF;" d="M2475.931,1595.563v22.111h-34.571v-22.221c0-0.333,0.015-0.66,0.051-0.986h34.463
				C2475.908,1594.829,2475.931,1595.192,2475.931,1595.563z"/>
		</g>
		<g>
			<path style="fill:#AEC3FF;" d="M2384.178,1595.563v34.288h-34.571v-34.397c0-0.333,0.015-0.66,0.051-0.986
				c0.362-3.938,2.894-7.245,6.382-8.725c2.487-1.051,4.235-3.328,4.373-6.026l0.254-4.953h12.691l0.08,4.938
				c0.05,2.691,1.755,5.004,4.234,6.049c3.503,1.479,6.049,4.786,6.447,8.717
				C2384.156,1594.829,2384.178,1595.192,2384.178,1595.563z"/>
			<polygon style="fill:#2A4E96;" points="2374.264,1576.938 2359.457,1576.938 2359.85,1573.07 2373.871,1573.07 			"/>
			<path style="fill:#FFFFFF;" d="M2384.178,1595.563v22.111h-34.571v-22.221c0-0.333,0.015-0.66,0.051-0.986h34.462
				C2384.156,1594.829,2384.178,1595.192,2384.178,1595.563z"/>
		</g>
	</g>
	<g>
		<rect x="1976.673" y="1156.818" style="fill:#AEC3FF;" width="49.979" height="87.679"/>
		
			<rect x="1968.637" y="1213.206" transform="matrix(-1.836970e-16 1 -1 -1.836970e-16 3213.1343 -770.7983)" style="fill:#FFFFFF;" width="46.658" height="15.925"/>
	</g>
	<g>
		<path style="fill:#AEC3FF;" d="M1922.604,1199.287v45.341h-45.716v-45.485c0-0.441,0.02-0.872,0.067-1.304
			c0.479-5.208,3.826-9.581,8.439-11.537c3.289-1.391,5.601-4.401,5.782-7.97l0.336-6.55h16.782l0.105,6.531
			c0.067,3.558,2.321,6.617,5.601,7.998c4.632,1.956,7.998,6.329,8.525,11.527
			C1922.574,1198.318,1922.604,1198.798,1922.604,1199.287z"/>
		<polygon style="fill:#2A4E96;" points="1909.494,1174.659 1889.914,1174.659 1890.434,1169.545 1908.975,1169.545 		"/>
		<path style="fill:#FFFFFF;" d="M1922.604,1199.287v29.239h-45.716v-29.384c0-0.441,0.02-0.872,0.067-1.304h45.571
			C1922.574,1198.318,1922.604,1198.798,1922.604,1199.287z"/>
	</g>
	<g>
		<rect x="1814.697" y="1156.818" style="fill:#AEC3FF;" width="49.979" height="87.679"/>
	</g>
	<rect x="2308.756" y="1244.497" style="fill:#ABC8F7;" width="678.787" height="14.886"/>
	<g>
		<path style="fill:#AEC3FF;" d="M2621.197,1199.287v45.341h-45.715v-45.485c0-0.441,0.019-0.872,0.066-1.304
			c0.479-5.208,3.826-9.581,8.439-11.537c3.289-1.391,5.601-4.401,5.783-7.97l0.335-6.55h16.782l0.105,6.531
			c0.067,3.558,2.321,6.617,5.602,7.998c4.631,1.956,7.997,6.329,8.525,11.527
			C2621.168,1198.318,2621.197,1198.798,2621.197,1199.287z"/>
		<polygon style="fill:#2A4E96;" points="2608.088,1174.659 2588.508,1174.659 2589.027,1169.545 2607.568,1169.545 		"/>
		<path style="fill:#FFFFFF;" d="M2621.197,1199.287v29.239h-45.715v-29.384c0-0.441,0.019-0.872,0.066-1.304h45.572
			C2621.168,1198.318,2621.197,1198.798,2621.197,1199.287z"/>
	</g>
	<g>
		<rect x="2510.711" y="1156.818" style="fill:#AEC3FF;" width="49.979" height="87.679"/>
		
			<rect x="2502.676" y="1213.206" transform="matrix(-1.836970e-16 1 -1 -1.836970e-16 3747.1733 -1304.8374)" style="fill:#FFFFFF;" width="46.658" height="15.925"/>
	</g>
	<g>
		<path style="fill:#AEC3FF;" d="M2466.474,1199.287v45.341h-45.716v-45.485c0-0.441,0.02-0.872,0.067-1.304
			c0.479-5.208,3.826-9.581,8.439-11.537c3.289-1.391,5.601-4.401,5.782-7.97l0.336-6.55h16.782l0.105,6.531
			c0.067,3.558,2.321,6.617,5.601,7.998c4.632,1.956,7.998,6.329,8.525,11.527
			C2466.445,1198.318,2466.474,1198.798,2466.474,1199.287z"/>
		<polygon style="fill:#2A4E96;" points="2453.364,1174.659 2433.784,1174.659 2434.304,1169.545 2452.844,1169.545 		"/>
		<path style="fill:#FFFFFF;" d="M2466.474,1199.287v29.239h-45.716v-29.384c0-0.441,0.02-0.872,0.067-1.304h45.571
			C2466.445,1198.318,2466.474,1198.798,2466.474,1199.287z"/>
	</g>
	<g>
		<rect x="2351.586" y="1156.818" style="fill:#AEC3FF;" width="49.979" height="87.679"/>
		
			<rect x="2343.55" y="1213.206" transform="matrix(-1.836970e-16 1 -1 -1.836970e-16 3588.0474 -1145.7114)" style="fill:#FFFFFF;" width="46.658" height="15.925"/>
	</g>
	<g>
		<path style="fill:#EBF3FA;" d="M2095.23,1438.141h-30.401c-8.77,0-15.878-7.109-15.878-15.879v-72.824
			c0-8.77,7.108-15.879,15.878-15.879h30.401c8.77,0,15.878,7.109,15.878,15.879v72.824
			C2111.108,1431.031,2104,1438.141,2095.23,1438.141z"/>
		<rect x="2066.098" y="1324.557" style="fill:#FFA561;" width="24.863" height="9.002"/>
		<rect x="2048.951" y="1368.281" style="fill:#FFFFFF;" width="62.157" height="27.863"/>
	</g>
	<g>
		<path style="fill:#EBF3FA;" d="M1999.047,1438.141h-18.697c-5.394,0-9.767-4.372-9.767-9.766v-44.791
			c0-5.394,4.373-9.766,9.767-9.766h18.697c5.394,0,9.767,4.372,9.767,9.766v44.791
			C2008.813,1433.769,2004.44,1438.141,1999.047,1438.141z"/>
		<rect x="1981.13" y="1368.281" style="fill:#FFA561;" width="15.292" height="5.537"/>
		<rect x="1970.583" y="1395.174" style="fill:#FFFFFF;" width="38.23" height="17.138"/>
	</g>
	<g>
		<path style="fill:#EBF3FA;" d="M1928.773,1438.141h-12.638c-3.646,0-6.601-2.955-6.601-6.601v-30.272
			c0-3.646,2.955-6.601,6.601-6.601h12.638c3.645,0,6.6,2.955,6.6,6.601v30.272
			C1935.373,1435.186,1932.418,1438.141,1928.773,1438.141z"/>
		<rect x="1916.663" y="1390.926" style="fill:#FFA561;" width="10.335" height="3.741"/>
		<rect x="1909.535" y="1409.102" style="fill:#FFFFFF;" width="25.838" height="11.582"/>
	</g>
	<g>
		<path style="fill:#EBF3FA;" d="M1869.153,1438.141h-18.698c-5.393,0-9.766-4.372-9.766-9.766v-44.791
			c0-5.394,4.373-9.766,9.766-9.766h18.698c5.394,0,9.766,4.372,9.766,9.766v44.791
			C1878.919,1433.769,1874.547,1438.141,1869.153,1438.141z"/>
		<rect x="1851.235" y="1368.281" style="fill:#FFA561;" width="15.292" height="5.537"/>
		<rect x="1840.689" y="1395.174" style="fill:#FFFFFF;" width="38.229" height="17.138"/>
	</g>
	<g>
		<path style="fill:#EBF3FA;" d="M1798.879,1438.141h-12.637c-3.646,0-6.601-2.955-6.601-6.601v-30.272
			c0-3.646,2.955-6.601,6.601-6.601h12.637c3.646,0,6.601,2.955,6.601,6.601v30.272
			C1805.479,1435.186,1802.524,1438.141,1798.879,1438.141z"/>
		<rect x="1786.77" y="1390.926" style="fill:#FFA561;" width="10.335" height="3.741"/>
		<rect x="1779.642" y="1409.102" style="fill:#FFFFFF;" width="25.838" height="11.582"/>
	</g>
	<g>
		<rect x="719.504" y="365.002" style="fill:#FFFFFF;" width="581.454" height="52.044"/>
		<rect x="802.249" y="226.354" style="fill:#FFFFFF;" width="5.406" height="138.649"/>
		<rect x="1213.458" y="226.354" style="fill:#FFFFFF;" width="5.406" height="138.649"/>
	</g>
	<g>
		<rect x="1938.412" y="365.002" style="fill:#FFFFFF;" width="581.454" height="52.044"/>
		<rect x="2021.157" y="226.354" style="fill:#FFFFFF;" width="5.406" height="138.649"/>
		<rect x="2432.367" y="226.354" style="fill:#FFFFFF;" width="5.405" height="138.649"/>
	</g>
	<rect x="359.919" y="699.328" style="fill:#FFFFFF;" width="674.736" height="16.983"/>
	<rect x="342.649" y="699.328" style="fill:#FFFFFF;" width="17.269" height="1088.489"/>
	<rect x="1030.071" y="699.328" style="fill:#FFFFFF;" width="17.27" height="1088.489"/>
	<rect x="1486.873" y="699.328" style="fill:#FFFFFF;" width="674.736" height="16.983"/>
	<rect x="1469.603" y="699.328" style="fill:#FFFFFF;" width="17.27" height="1088.489"/>
	<rect x="2157.025" y="699.328" style="fill:#FFFFFF;" width="17.27" height="1088.489"/>
	<rect x="2313.074" y="699.328" style="fill:#FFFFFF;" width="674.735" height="16.983"/>
	<rect x="2295.805" y="699.328" style="fill:#FFFFFF;" width="17.27" height="1088.489"/>
	<rect x="2983.227" y="699.328" style="fill:#FFFFFF;" width="17.27" height="1088.489"/>
	<g>
		<g>
			<g>
				<path style="fill:#77A4E5;" d="M471.665,1594.862c0,0-30.825-35.962-1.901-58.804c0,0,21.127-12.791,38.354-11.752
					c0,0-24.41,40.933-16.513,45.004s23.912-47.572,23.912-47.572s48.079-4.662,63.545,2.773c0,0-41.101,33.635-32.445,35.637
					c8.656,2.003,53.051-31.01,53.051-31.01s44.747,7.614,42.362,34.912c-2.386,27.297-17.805,35.727-24.582,35
					c-6.777-0.726-46.418-15.857-47.282-10.306c-0.863,5.553,22.999,23.699,39.708,24.548c0,0-31.548,34.792-52.515,24.751
					s-22.756-25.958-35.826-31.927c-13.07-5.97-24.227-5.955-18.831,0.133c5.396,6.089,29.05,12.006,36.524,25.227
					c7.475,13.222,14.181,22.139-7.512,18.874c-21.693-3.264-56.954-19.137-58.502-37.313
					C471.665,1594.862,471.665,1594.862,471.665,1594.862z"/>
				<g>
					<path style="fill:#77A4E5;" d="M620.042,1564.787c0,0-121.538-4.684-148.377,30.075c0,0-5.937,17.777-24.202,33.966
						l-2.847,7.759c0,0,21.061-22.206,28.597-23.549C473.213,1613.038,461.427,1569.977,620.042,1564.787z"/>
					<path style="fill:#77A4E5;" d="M447.463,1628.828c0,0-26.087,19.292-27.899,53.764l4.735,0.424c0,0,8.332-35.644,23.391-49.582
						C462.749,1619.495,447.463,1628.828,447.463,1628.828z"/>
				</g>
			</g>
			<g>
				<path style="fill:#77A4E5;" d="M363.891,1549.637c0,0,49.034-27.459,26.151-64.726c0,0-18.306-22.883-37.92-28.767
					c0,0,10.461,55.572,0,56.88c-10.461,1.308-7.191-62.764-7.191-62.764s-51.649-24.845-71.917-22.883
					c0,0,32.036,54.265,21.575,52.957c-10.461-1.308-46.419-56.226-46.419-56.226s-52.956-9.808-61.456,21.574
					c-8.499,31.383,5.23,47.073,13.076,49.034c7.846,1.962,58.187,1.308,56.88,7.846c-1.308,6.538-35.305,16.999-54.265,11.114
					c0,0,20.921,51.649,48.38,49.034c27.459-2.615,35.958-19.613,52.957-20.921s29.42,3.269,20.921,7.846
					c-8.5,4.576-37.266,1.5-50.996,13.172s-24.844,18.863,0.654,24.094c25.497,5.23,71.263,1.962,80.416-17.652
					C363.891,1549.637,363.891,1549.637,363.891,1549.637z"/>
				<g>
					<path style="fill:#77A4E5;" d="M210.904,1455.491c0,0,137.296,44.457,152.987,94.146c0,0-0.654,22.229,13.076,47.727v9.807
						c0,0-14.383-33.344-22.229-37.92C354.738,1569.25,385.466,1526.1,210.904,1455.491z"/>
					<path style="fill:#77A4E5;" d="M376.967,1597.363c0,0,21.173,32.152,9.103,71.291l-5.447-1.463c0,0,5.288-43.109-5.79-64.79
						C363.754,1580.72,376.967,1597.363,376.967,1597.363z"/>
				</g>
			</g>
			<g>
				<path style="fill:#9FC1F4;" d="M441.9,1511.767c0,0-64.636-36.196-34.473-85.319c0,0,24.131-30.164,49.985-37.92
					c0,0-13.789,73.254,0,74.978c13.789,1.724,9.48-82.734,9.48-82.734s68.083-32.749,94.8-30.163c0,0-42.229,71.53-28.44,69.807
					c13.789-1.724,61.189-74.116,61.189-74.116s69.807-12.927,81.011,28.44c11.204,41.367-6.894,62.051-17.236,64.636
					s-76.702,1.724-74.978,10.342c1.724,8.618,46.538,22.407,71.531,14.651c0,0-27.578,68.083-63.774,64.636
					s-47.4-25.854-69.807-27.578c-22.407-1.724-38.782,4.31-27.578,10.342c11.204,6.032,49.124,1.977,67.222,17.363
					c18.098,15.386,32.749,24.866-0.862,31.761c-33.611,6.895-93.938,2.585-106.003-23.27
					C441.9,1511.767,441.9,1511.767,441.9,1511.767z"/>
				<g>
					<path style="fill:#9FC1F4;" d="M643.565,1387.665c0,0-180.981,58.604-201.665,124.102c0,0,0.862,29.302-17.236,62.913v12.927
						c0,0,18.96-43.952,29.302-49.985C453.966,1537.621,413.46,1480.741,643.565,1387.665z"/>
					<path style="fill:#9FC1F4;" d="M424.664,1574.68c0,0-27.91,42.383-11.999,93.975l7.18-1.929c0,0-6.97-56.825,7.632-85.405
						C442.081,1552.74,424.664,1574.68,424.664,1574.68z"/>
				</g>
			</g>
			<path style="fill:#9FC1F4;" d="M439.723,1780.534c69.926,0,126.612-56.686,126.612-126.611H313.11
				C313.11,1723.849,369.797,1780.534,439.723,1780.534z"/>
			<path style="fill:#AFCDFB;" d="M470.878,1779.565c-5.149,0.644-10.4,0.97-15.73,0.97c-69.925,0-126.606-56.689-126.606-126.613
				h31.454C359.996,1718.523,408.374,1771.819,470.878,1779.565z"/>
			<rect x="308.947" y="1653.922" style="fill:#9FC1F4;" width="260.267" height="3.884"/>
		</g>
		<rect x="396.587" y="1772.567" style="fill:#9FC1F4;" width="80.422" height="14.453"/>
	</g>
	<g>
		<path style="fill:#233862;" d="M1201.016,1735.997h50.994c-0.381-2.675-1.681-10.81-4.067-18.305
			c-0.827-2.609-1.792-5.145-2.889-7.346c-4.959-9.899-36.46-3.604-36.46-3.604s-2.926,2.508-5.21,12.083
			C1202.371,1723.042,1201.48,1728.643,1201.016,1735.997z"/>
		<path style="fill:#ABDDDA;" d="M1294.629,957.077c0,0,40.635,7.135,49.821,31.119c9.187,23.984,61.087,411.406,61.087,411.406
			s-25.701,20.363-80.868,13.053C1269.503,1405.344,1294.629,957.077,1294.629,957.077z"/>
		<path style="fill:#233862;" d="M1355.112,1719.903c0.14,6.938,1.013,13.503,3.529,16.094h100.865
			c-1.282-3.649-4.913-9.138-15.268-10.819c-11.767-1.903-30.108-7.568-40.816-18.89c-3.817-4.021-6.659-8.767-7.903-14.311
			c-4.745-21.128-39.237,6.473-39.237,6.473S1354.89,1709.576,1355.112,1719.903z"/>
		<path style="fill:#233862;" d="M1398.55,1709.631c-11.273,3.594-32.815,14.572-46.502,9.408
			c-8.843-3.333-58.282-146.341-61.488-208.892c-0.236-4.548-1.13-10.894-2.531-18.631c-2.928-16.143-8.05-38.326-13.948-62.805
			c-15.821-65.589-37.22-147.64-36.756-173.865c0.717-40.705,121.305-8.531,121.305-8.531s8.294,33.39,9.948,81.731
			c3.274,95.957,12.277,258.043,36.765,370.605C1406.38,1703.429,1403.224,1708.146,1398.55,1709.631z"/>
		<path style="fill:#2B478B;" d="M1314.854,1254.988l-63.748,462.023c0,0-27.995,6.751-49.768,1.351
			c0,0-18.663-245.726-17.108-305.132c1.556-59.406-13.395-158.961,3.412-169.939
			C1204.449,1232.312,1314.854,1254.988,1314.854,1254.988z"/>
		<path style="fill:#FFFFFF;" d="M1179.585,978.242c0,0,66.992-43.318,115.044-21.165c7.657,3.53,16.392,13.381,22.645,20.271
			c17.369,19.139,51.307,323.165,51.307,323.165s-96.342,32.629-188.996-11.074V978.242z"/>
		<path style="fill:#ABDDDA;" d="M1298.44,955.979c0,0,67.821,27.794,77.007,49.15c9.186,21.356,55.587,213.736,55.587,229.115
			s-40.372,49.942-48.739,25.139c-6.949-20.596-58.546-191.607-70.905-231.628L1298.44,955.979z"/>
		<g>
			<path style="fill:#FFB27D;" d="M1284.355,977.157c-14.806,2.904-36.555-0.191-52.478-10.687
				c7.189-17.171,10.136-30.729,11.185-39.502c0.062-0.467,0.107-0.919,0.153-1.355c0.475-4.547,0.406-7.632,0.184-9.049h38.277
				c0,0,10.465,4.785,10.465,8.092c0,1.769,0.016,3.461,0.046,5.076c0.077,4.402,0.253,8.245,0.482,11.544
				c0.728,10.74,1.96,15.8,1.96,15.8S1299.306,974.225,1284.355,977.157z"/>
			<path style="fill:#E2915A;" d="M1292.669,941.277c-28.999,5.603-45.833-10.243-49.607-14.308
				c-0.536-0.582-0.812-0.926-0.812-0.926c0.307-0.153,0.628-0.291,0.965-0.429c10.794-4.371,35.292-0.895,48.971,4.119
				C1292.264,934.134,1292.439,937.977,1292.669,941.277z"/>
			<path style="fill:#FFB27D;" d="M1233.59,910.273c5.182,27.889,41.169,26.974,56.721,25.221c4.376-0.487,7.13-1.046,7.13-1.046
				c4.935-1.318,7.688-9.091,8.967-19.272c2.539-20.149-0.669-49.727-4.071-57.292c-5.124-11.383-14.773-23.695-51.013-14.811
				C1215.077,851.962,1226.941,874.54,1233.59,910.273z"/>
			<path style="fill:#233862;" d="M1303.685,842.327c-4.953-6.857-15.455-15.236-24.994-20.397
				c-20.492-11.086-46.719,0.349-46.829,0.397c-29.601,13.014-37.331,35.662-21.637,70.94
				c16.595,37.305,32.396,33.107,32.396,33.107s-3.354-2.086-3.051-13.713c0.018-0.661,0.044-1.213,0.074-1.688
				c0.152-2.382-0.688-4.772-2.469-6.361c-3.677-3.282-5.469-13.206-2.39-15.969c3.714-3.333,8.934,0.715,10.601,3.83
				c1.456,2.199,4.066,2.97,6.496,1.434c9.213-5.824,3.229-17.474,12.032-24.6c8.804-7.126,26.668-1.143,39.875-6.823
				C1321.077,856.042,1307.417,847.494,1303.685,842.327z"/>
		</g>
		<path style="fill:#ABDDDA;" d="M1307.81,1428.067c-5.836,1.499-11.611,2.738-17.348,3.681c-5.081,0.867-10.124,1.512-15.192,1.933
			c-28.662,2.503-57.459-1.536-91.127-11.189c-7.571-2.169-15.403-4.635-23.544-7.373c-0.855-0.285,2.218-89.293,5.774-181.101
			c0.359-9.48,0.731-18.997,1.103-28.451c0.161-4.003,0.31-7.98,0.471-11.958c3.222-81.201,6.419-154.521,7.088-158.475
			c1.537-8.935,2.974-16.556,4.548-23.147c4.584-19.244,10.285-29.789,22.701-38.86c1.202-0.917,11.14-5.923,19.888-10.285
			c7.262-3.606,13.705-6.753,13.705-6.753c0.013,0,0.013,0,0.013,0c2.887,1.413,6.356,8.03,9.975,17.323
			c6.679,17.113,13.866,43.321,18.872,62.899c0.025,0.05,0.025,0.087,0.025,0.1c0,0.012,0,0.012,0,0.012
			c3.222,12.64,5.539,22.479,6.195,25.304c1.115,4.771,2.59,14.003,4.337,26.518c2.354,17.039,5.167,40.149,8.153,66.394
			c0.297,2.689,0.607,5.428,0.917,8.179c0.347,3.147,0.707,6.332,1.066,9.542c0.111,1.04,0.223,2.068,0.334,3.109
			C1286.905,1185.852,1308.218,1422.752,1307.81,1428.067z"/>
		<path style="fill:#91CECF;" d="M1285.431,1172.357c-19.343-0.843-112.664-5.094-114.374-7.832
			c-1.92-3.061,37.881-96.653,37.881-96.653c-0.049,0.186-7.756,75.723,53.879,85.674c6.444,1.04-0.951,9.195,3.411,10.087
			C1266.575,1166.781,1285.071,1169.147,1285.431,1172.357z"/>
		<path style="fill:#91CECF;" d="M1280.065,1189.655c0,0-21.027,12.162-21.065,12.186c-9.401,6.001-38.791,17.938-79.418,28.909
			c-4.264,1.155-8.673,2.25-13.213,3.261c0.359-9.478,0.735-18.993,1.102-28.439c-5.366-0.421-10.503-1.103-15.272-2.113
			c0.161-1.248,0.329-2.495,0.49-3.743c5.167-2.121,10.304-4.165,15.257-6.102c4.034-1.577,7.938-3.077,11.636-4.471
			c16.689-6.339,29.06-10.634,29.06-10.634l49.4,15.648L1280.065,1189.655z"/>
		<path style="fill:#91CECF;" d="M1293.275,948.215c3.854,1.455,11.246,9.026,12.912,13.213l5.203,66.326
			c0,0-11.107-48.676-16.761-70.678C1293.191,951.484,1293.456,949.785,1293.275,948.215z"/>
		<path style="fill:#FFFFFF;" d="M1282.98,918.044c0,0,3.79,4.884,8.881,4.265c5.091-0.62,8.88-2.224,9.5-4.547
			c0.619-2.323,0.971-4.027,0.971-4.027S1295.321,912.237,1282.98,918.044z"/>
		<path style="fill:#FFB27D;" d="M1270.627,1162.333c0,0,12.317-5.757,15.595-7.287c3.278-1.529,14.861-4.152,14.861-4.152
			l-0.465,6.313l-11.487,7.894l-17.646,9.055L1270.627,1162.333z"/>
		<g>
			
				<rect x="1296.528" y="1130.694" transform="matrix(0.9736 -0.2282 0.2282 0.9736 -229.6783 335.0221)" style="fill:#FFA561;" width="74.819" height="60.085"/>
			
				<rect x="1293.477" y="1145.387" transform="matrix(0.9736 -0.2282 0.2282 0.9736 -227.6954 330.151)" style="fill:#FFFFFF;" width="40.675" height="8.61"/>
		</g>
		<path style="fill:#FFB27D;" d="M1278.826,1183.082c0,0,18.651,0.57,29.142-0.456s22.62-11.407,23.275-14.03
			c0.655-2.622-0.873-7.217-12.895-7.858c-10.208-0.546-22.549,0-22.549,0l-24.873,5.726L1278.826,1183.082z"/>
		<path style="fill:#ABDDDA;" d="M1280.065,1189.655c0,0-12.332,5.657-22.437,7.694c-0.038,0-0.068,0.007-0.107,0.022
			c-18.633,3.743-49.959,8.995-77.939,8.712c-4.126-0.046-8.184-0.207-12.111-0.513c-5.366-0.421-10.503-1.103-15.272-2.113
			c-10.228-2.159-18.794-5.811-24.397-11.521c-41.623-42.396,22.713-194.554,36.24-209.359
			c15.793-17.286,44.616-23.349,60.531-25.431c0.666-0.084,1.301-0.168,1.921-0.245c5.596-0.666,9.187-0.804,9.386-0.812
			c0.008,0,0.008,0,0.008,0s-1.248,4.011-3.338,10.817c-0.812,2.633-1.753,5.688-2.787,9.095
			c-9.776,32.015-28.639,94.934-36.953,130.416c-3.047,12.984-4.677,22.293-3.935,25.072c3.246,12.118,36.876,18.35,58.181,21.105
			c8.888,1.148,14.252,0.835,15.761,0.95C1275.801,1151.624,1280.065,1189.655,1280.065,1189.655z"/>
		<path style="fill:#91CECF;" d="M1238.774,947.144c0,0-13.206,2.29-19.075,10.711c0,0,45.258,79.264,45.063,78.552
			C1264.566,1035.695,1249.97,956.875,1238.774,947.144z"/>
	</g>
	<g>
		<rect x="735.953" y="1248.871" style="fill:#FFA561;" width="1069.349" height="538.945"/>
		<rect x="701.568" y="1218.398" style="fill:#FFFFFF;" width="1138.118" height="44.066"/>
		<g>
			<path style="fill:#FFFFFF;" d="M986.955,1366.07h20.125c11.885,0,19.395,6.781,19.395,17.207
				c0,11.447-9.187,17.427-20.416,17.427h-10.135v16.405h-8.969V1366.07z M1006.35,1392.611c6.781,0,11.01-3.792,11.01-9.261
				c0-5.979-4.302-9.114-11.01-9.114h-10.426v18.375H1006.35z"/>
			<path style="fill:#FFFFFF;" d="M1035.661,1366.07h8.968v21.218h24.353v-21.218h8.968v51.039h-8.968v-21.509h-24.353v21.509
				h-8.968V1366.07z"/>
			<path style="fill:#FFFFFF;" d="M1109.157,1365.705h8.313l22.457,51.404h-9.479l-5.177-12.322h-24.135l-5.25,12.322h-9.187
				L1109.157,1365.705z M1121.99,1396.84l-8.823-20.416l-8.75,20.416H1121.99z"/>
			<path style="fill:#FFFFFF;" d="M1148.676,1366.07h22.749c11.958,0,18.958,6.416,18.958,16.26c0,8.385-5.031,13.416-12.177,15.457
				l13.78,19.322h-10.572l-12.687-17.791h-11.083v17.791h-8.969V1366.07z M1170.769,1391.371c6.416,0,10.5-3.354,10.5-8.677
				c0-5.468-3.938-8.458-10.573-8.458h-13.051v17.135H1170.769z"/>
			<path style="fill:#FFFFFF;" d="M1201.392,1366.07h9.552l15.531,24.135l15.53-24.135h9.552v51.039h-8.969v-36.603l-16.113,24.062
				h-0.292l-15.968-23.916v36.457h-8.823V1366.07z"/>
			<path style="fill:#FFFFFF;" d="M1282.764,1365.705h8.312l22.458,51.404h-9.479l-5.177-12.322h-24.134l-5.25,12.322h-9.187
				L1282.764,1365.705z M1295.596,1396.84l-8.823-20.416l-8.75,20.416H1295.596z"/>
			<path style="fill:#FFFFFF;" d="M1316.887,1391.59c0-14.51,10.864-26.395,26.321-26.395c9.406,0,15.093,3.281,19.979,7.947
				l-5.76,6.636c-4.083-3.792-8.458-6.344-14.291-6.344c-9.771,0-16.843,8.021-16.843,18.155c0,9.989,7.073,18.155,16.843,18.155
				c6.271,0,10.281-2.552,14.655-6.635l5.761,5.833c-5.323,5.541-11.156,9.041-20.708,9.041
				C1327.97,1417.984,1316.887,1406.392,1316.887,1391.59z"/>
			<path style="fill:#FFFFFF;" d="M1387.248,1396.985l-20.27-30.915h10.573l14.291,22.603l14.437-22.603h10.281l-20.271,30.696
				v20.343h-9.041V1396.985z"/>
		</g>
		<rect x="735.953" y="1605.371" style="fill:#FFFFFF;" width="1069.349" height="87.027"/>
		<g>
			<g>
				<path style="fill:#FFFFFF;" d="M855.951,1459.005c-18.007,0-34.937-7.013-47.67-19.745
					c-12.733-12.733-19.745-29.663-19.745-47.67s7.012-34.937,19.745-47.67c12.733-12.733,29.663-19.745,47.67-19.745
					c18.008,0,34.937,7.012,47.67,19.745c12.733,12.733,19.746,29.663,19.746,47.67s-7.013,34.937-19.746,47.67
					C890.888,1451.992,873.959,1459.005,855.951,1459.005z M855.951,1330.379c-16.35,0-31.721,6.367-43.282,17.929
					c-11.561,11.562-17.928,26.933-17.928,43.282s6.367,31.721,17.928,43.282c11.561,11.562,26.933,17.928,43.282,17.928
					c16.35,0,31.721-6.366,43.283-17.928c11.561-11.562,17.928-26.933,17.928-43.282s-6.367-31.721-17.928-43.282
					C887.672,1336.746,872.301,1330.379,855.951,1330.379z"/>
			</g>
			<polygon style="fill:#FFFFFF;" points="899.493,1380.593 866.948,1380.593 866.948,1348.048 844.955,1348.048 844.955,1380.593 
				812.41,1380.593 812.41,1402.587 844.955,1402.587 844.955,1435.132 866.948,1435.132 866.948,1402.587 899.493,1402.587 			"/>
		</g>
	</g>
	<rect x="2313.074" y="865.042" style="fill:#ABC8F7;" width="670.152" height="14.886"/>
	<rect x="2413.503" y="865.042" style="fill:#FFFFFF;" width="45.11" height="25.173"/>
	<rect x="2579.169" y="865.042" style="fill:#FFFFFF;" width="45.111" height="25.173"/>
	<rect x="2844.268" y="865.042" style="fill:#FFFFFF;" width="45.111" height="25.173"/>
	<rect x="2313.074" y="1438.141" style="fill:#ABC8F7;" width="670.152" height="14.886"/>
	<rect x="2313.074" y="1629.851" style="fill:#ABC8F7;" width="670.152" height="14.886"/>
	<rect x="2358.917" y="1385.85" style="fill:#F99746;" width="74.867" height="52.291"/>
	<rect x="2464.282" y="1363.273" style="fill:#AEC3FF;" width="74.867" height="74.867"/>
	<rect x="2569.647" y="1363.273" style="fill:#F99746;" width="74.867" height="74.867"/>
	<rect x="2358.917" y="1400.707" style="fill:#FFFFFF;" width="36.368" height="7.038"/>
	<rect x="2464.282" y="1375.924" style="fill:#FFFFFF;" width="36.368" height="7.039"/>
	<rect x="2569.647" y="1375.924" style="fill:#FFFFFF;" width="36.368" height="7.039"/>
	<rect x="2343.873" y="806.139" style="fill:#AEC3FF;" width="50.88" height="58.909"/>
	<rect x="2343.873" y="816.882" style="fill:#EBF3FA;" width="31.389" height="18.712"/>
	<rect x="2434.641" y="806.139" style="fill:#AEC3FF;" width="50.88" height="58.909"/>
	<rect x="2434.641" y="816.882" style="fill:#EBF3FA;" width="31.389" height="18.712"/>
	<rect x="2506.905" y="828.707" style="fill:#FFA561;" width="31.388" height="36.341"/>
	<rect x="2506.905" y="835.334" style="fill:#EBF3FA;" width="19.363" height="11.543"/>
	<rect x="2565.907" y="828.707" style="fill:#FFA561;" width="31.388" height="36.341"/>
	<rect x="2565.907" y="835.334" style="fill:#EBF3FA;" width="19.362" height="11.543"/>
	<rect x="2632.456" y="828.707" style="fill:#FFA561;" width="31.388" height="36.341"/>
	<rect x="2632.456" y="835.334" style="fill:#EBF3FA;" width="19.363" height="11.543"/>
	<g>
		<rect x="2809.549" y="811.462" style="fill:#AEC3FF;" width="46.282" height="53.586"/>
		<rect x="2809.549" y="821.234" style="fill:#EBF3FA;" width="28.552" height="17.021"/>
	</g>
	<g>
		<rect x="2903.99" y="811.462" style="fill:#AEC3FF;" width="46.283" height="53.586"/>
		<rect x="2903.99" y="821.234" style="fill:#EBF3FA;" width="28.552" height="17.021"/>
	</g>
	<g>
		<rect x="2724.902" y="811.462" style="fill:#AEC3FF;" width="46.282" height="53.586"/>
		<rect x="2724.902" y="821.234" style="fill:#EBF3FA;" width="28.552" height="17.021"/>
	</g>
	<g>
		<g>
			<path style="fill:#FFA561;" d="M1894.827,1472.771v45.341h-45.715v-45.485c0-0.44,0.019-0.872,0.066-1.304
				c0.479-5.207,3.827-9.58,8.439-11.537c3.289-1.391,5.601-4.401,5.783-7.969l0.335-6.55h16.783l0.104,6.53
				c0.067,3.558,2.321,6.617,5.601,7.998c4.633,1.956,7.998,6.329,8.526,11.527
				C1894.799,1471.802,1894.827,1472.281,1894.827,1472.771z"/>
			<polygon style="fill:#2A4E96;" points="1881.718,1448.144 1862.139,1448.144 1862.657,1443.028 1881.198,1443.028 			"/>
			<g>
				
					<rect x="1911.104" y="1449.38" transform="matrix(0.6393 -0.769 0.769 0.6393 -427.6963 2032.6459)" style="fill:#7DA8F4;" width="83.036" height="45.596"/>
			</g>
			<g>
				<polygon style="fill:#FFA561;" points="2010.885,1450.729 2009.563,1454.579 1989.289,1513.771 1977.896,1510.467 
					1990.447,1449.036 1991.264,1445.039 				"/>
				<polygon style="fill:#EBF3FA;" points="2010.885,1450.729 2009.563,1454.579 1990.447,1449.036 1991.264,1445.039 				"/>
				
					<rect x="1977.339" y="1506.52" transform="matrix(0.9604 0.2785 -0.2785 0.9604 499.5299 -492.6672)" style="fill:#AEC3FF;" width="12.531" height="10.276"/>
				
					<rect x="1987.213" y="1489.65" transform="matrix(0.9606 0.2779 -0.2779 0.9606 494.1782 -493.4059)" style="fill:#CDE0FB;" width="0.878" height="13.867"/>
			</g>
		</g>
		<path style="fill:#FFB27D;" d="M1896.41,1328.889c0,0,18.979,12.617,21.881,17.936c2.9,5.318,1.998,16.702,1.998,16.702
			s-18.93,8.433-16.623-1.475c2.21-9.491-6.165-5.8-11.482-10.393c-5.318-4.593-11.505-18.052-11.505-18.052L1896.41,1328.889z"/>
		<g>
			<path style="fill:#233862;" d="M1706.514,917.255c0,0,46.785-56.222,71.555-20.248c0,0,18.479,7.667,25.162,39.12
				c6.819,32.091-14.521,56.483-25.556,50.455c-7.076-3.866-12.434,8.518-12.434,8.518L1706.514,917.255z"/>
			<path style="fill:#FFB27D;" d="M1648.486,1216.428c-37.196-13.703-73.021-77.355-73.021-77.355l11.731-8.211
				c9.77,14.292,53.727,41.733,53.727,41.733c1.003-12.043,2.46-22.972,4.258-32.868c12.203-67.271,40.118-87.198,47.612-91.429
				c1.209-0.688,1.891-0.956,1.891-0.956s-0.025,0.495-0.083,1.433c-0.108,2.024-0.346,6.104-0.736,11.694
				C1690.958,1102.117,1679.566,1227.888,1648.486,1216.428z"/>
			<path style="fill:#233862;" d="M1772.957,891.306c0,0,6.291-25.162,43.248-17.299c0,0-17.692-2.228-22.541,4.587
				c0,0,14.022-6.421,22.803-1.048s10.222,23.458,8.911,28.962s-11.008,21.886-17.43,21.886s-14.022-5.635-14.022-5.635
				L1772.957,891.306z"/>
			<path style="fill:#FFB27D;" d="M1828.259,1285.117c-18.376-41.211-27.167-52.864-27.474-65.831
				c-0.244-10.253,4.813-21.316,14.633-48.444c2.313-6.393,3.908-12.967,4.892-19.611c7.767-52.298-22.476-108.834-41.272-112.686
				c-5.229-1.383-14.096-20.272-13.986-50.71l-2.354,0.464l-39.58,7.837c0,0,0.9,12.456,0.928,24.189
				c0.026,9.779-0.564,19.048-2.778,20.215c-2.851,0.258-4.531,0.428-4.531,0.428s-33.001,45.831-35.777,88.457
				c-2.775,42.627,26.429,61.145-0.22,146.326C1653.531,1362.75,1838.41,1307.889,1828.259,1285.117z"/>
			<path style="fill:#E8945B;" d="M1723.117,996.137c0,0,0.9,12.456,0.928,24.189c22.147-0.624,33.854-20.828,38.652-32.027
				L1723.117,996.137z"/>
			<path style="fill:#233862;" d="M1766.784,983.99c0,0,11.606-18.339,14.393-34.021c1.989-11.195-3.713-52.694-45.415-46.718
				c0,0-12.112,1.194-23.497,8.883c-9.054,6.115-22.121,19.317-7.511,55.53l3.795,12.233L1766.784,983.99z"/>
			<path style="fill:#FFB27D;" d="M1715.721,1007.248c0,0,52.402,0.864,52.438-31.777s6.823-54.514-26.633-56.446
				c-33.456-1.932-39.97,10.516-42.632,21.409C1696.232,951.326,1702.091,1006.182,1715.721,1007.248z"/>
			<path style="fill:#233862;" d="M1717.66,918.225c0,0,14.348,38.295,36.366,43.957c22.02,5.663,31.57-0.237,31.57-0.237
				s-16.89-13.417-20.395-36.838C1765.202,925.107,1728.483,899.998,1717.66,918.225z"/>
			<path style="fill:#233862;" d="M1721.216,921.334c0,0-10.715,8.55-13.327,16.862s-3.787,25.423-8.774,24.841
				c0,0-10.81-26.029,1.339-40.753C1713.334,906.671,1721.216,921.334,1721.216,921.334z"/>
			<path style="fill:#163560;" d="M1781.859,1680.564c-13.183,52.445-33.029,92.651-33.029,92.651l-17.281-1.197
				c0,0,8.474-40.315,7.987-94.785c-0.342-38.082-5.051-83.088-20.099-126.06c-51.706-147.671-43.35-255.144-43.35-255.144
				l97.234,11.373l4.53,0.531c0.405,44.655,1.558,105.285,2.566,152.695c0.892,42.638,1.675,74.578,1.675,74.578
				C1800.787,1575.469,1793.998,1632.299,1781.859,1680.564z"/>
			<path style="fill:#FFB27D;" d="M1896.41,1328.889l-15.731,4.719c0,0-51.895-86.104-56.613-108.508
				c-1.54-7.295-5.313-21.892-9.716-38.244c-9.113-33.867-20.874-75.308-20.874-75.308l-3.872-16.776l-13.21-57.208
				c0,0,25.294,2.585,40.09,8.771c4.898,2.044,8.636,4.484,9.94,7.348c10.869,23.898,21.721,84.213,29.348,127.238
				c4.25,23.98,7.492,42.593,9.185,46.537C1869.675,1238.462,1884.092,1299.011,1896.41,1328.889z"/>
			<path style="fill:#1C468A;" d="M1837.645,1672.19c-5.592,59.666-30.208,98.249-30.208,98.249l-8.255,6.003
				c0,0-7.813-42.038-13.342-92.051c-5.268-47.536-12.49-97.838-20.657-113.19c-32.427-60.892-42.188-290.758-42.188-290.758
				l98.585-4.891c9.914,16.668,14.236,44.007,15.263,75.092c2.594,78.45-15.848,180.746-18.604,195.541c0,0.009,0,0.018-0.009,0.036
				c-0.217,1.144,0.117,2.269,0.647,3.305C1838.491,1588.355,1841.327,1632.776,1837.645,1672.19z"/>
			<path style="fill:#233862;" d="M1719.226,922.628c0,0,10.223,40.102,38.006,52.945c0,0-27.783-24.638-30.143-51.111
				C1724.73,897.99,1719.226,922.628,1719.226,922.628z"/>
			<path style="fill:#FFB27D;" d="M1587.196,1130.861c0.006-1.619,1.356-25.025-2.81-29.943
				c-4.167-4.917-12.674-11.909-15.35-11.694c-2.676,0.215-13.14,14.119-9.994,24.774s16.423,25.074,16.423,25.074
				L1587.196,1130.861z"/>
			<path style="fill:#FFB27D;" d="M1837.645,1672.19c-5.592,59.666-30.208,98.249-30.208,98.249l-8.405,7.654
				c0,0-7.663-43.689-13.191-93.702C1791.666,1684.815,1817.348,1685.752,1837.645,1672.19z"/>
			<path style="fill:#FFB27D;" d="M1781.859,1680.564c-13.183,52.445-33.029,92.651-33.029,92.651l-17.281-1.197
				c0,0,8.474-40.315,7.987-94.785C1745.398,1680.187,1757.501,1683.186,1781.859,1680.564z"/>
			<g>
				<path style="fill:#233862;" d="M1758.781,1787.706h-11.032c-3.696-0.582-6.425-1.651-10.214-2.146
					c-5.756-0.755-8.406,1.604-8.934,2.146c-0.07,0.071-0.102,0.11-0.102,0.11h-46.864c-1.18-1.683-0.048-5.583,1.062-8.453
					c0.747-1.95,2.374-3.428,4.388-4.01c4.97-1.439,14.767-2.721,23.738-10.844c5.049-4.561,24.376-16.772,24.376-16.772
					l0.103-0.023c0.425,0.008,2.445,0.629,11.236,8.052c4.545,3.83,12.29-5.409,12.29-5.409s1.455,1.203,2.54,3.443
					c0.872,1.77,1.51,4.199,1.006,7.195c-0.699,4.223,1.558,12.069,3.357,17.378c1.094,3.216,2.014,5.496,2.014,5.496
					S1768.271,1786.519,1758.781,1787.706z"/>
				<path style="fill:#466AA5;" d="M1761.368,1753.8c-2.635,1.856-8.193,5.513-11.882,5.992
					c-4.977,0.652-14.287-12.055-14.287-12.055l0.103-0.023c0.425,0.008,2.445,0.629,11.236,8.052
					c4.545,3.83,12.29-5.409,12.29-5.409S1760.283,1751.56,1761.368,1753.8z"/>
				<path style="fill:#466AA5;" d="M1758.781,1787.706h-11.032c-3.696-0.582-6.425-1.651-10.214-2.146
					c-5.756-0.755-8.406,1.604-8.934,2.146c-0.07,0.071-0.102,0.11-0.102,0.11h-46.864c-1.18-1.683-0.048-5.583,1.062-8.453
					c1.423-1.266,1.824,5.496,2.61,6.573c0.786,1.078,38.23,0.394,40.393-1.179c2.163-1.573,8.649-4.325,17.692-2.163
					c7.871,1.88,19.469-2.94,22.339-4.222c1.094,3.216,2.014,5.496,2.014,5.496S1768.271,1786.519,1758.781,1787.706z"/>
			</g>
			<g>
				<path style="fill:#233862;" d="M1817.652,1787.706h-11.031c-3.696-0.582-6.425-1.651-10.215-2.146
					c-5.756-0.755-8.405,1.604-8.933,2.146c-0.07,0.071-0.103,0.11-0.103,0.11h-46.864c-1.179-1.683-0.047-5.583,1.062-8.453
					c0.747-1.95,2.375-3.428,4.388-4.01c4.97-1.439,14.768-2.721,23.739-10.844c5.048-4.561,24.376-16.772,24.376-16.772
					l0.102-0.023c0.425,0.008,2.446,0.629,11.236,8.052c4.546,3.83,12.29-5.409,12.29-5.409s1.455,1.203,2.54,3.443
					c0.873,1.77,1.51,4.199,1.007,7.195c-0.7,4.223,1.557,12.069,3.357,17.378c1.093,3.216,2.013,5.496,2.013,5.496
					S1827.144,1786.519,1817.652,1787.706z"/>
				<path style="fill:#466AA5;" d="M1820.239,1753.8c-2.634,1.856-8.193,5.513-11.881,5.992
					c-4.978,0.652-14.287-12.055-14.287-12.055l0.102-0.023c0.425,0.008,2.446,0.629,11.236,8.052
					c4.546,3.83,12.29-5.409,12.29-5.409S1819.154,1751.56,1820.239,1753.8z"/>
				<path style="fill:#466AA5;" d="M1817.652,1787.706h-11.031c-3.696-0.582-6.425-1.651-10.215-2.146
					c-5.756-0.755-8.405,1.604-8.933,2.146c-0.07,0.071-0.103,0.11-0.103,0.11h-46.864c-1.179-1.683-0.047-5.583,1.062-8.453
					c1.424-1.266,1.824,5.496,2.611,6.573c0.786,1.078,38.23,0.394,40.393-1.179c2.162-1.573,8.649-4.325,17.692-2.163
					c7.871,1.88,19.469-2.94,22.339-4.222c1.093,3.216,2.013,5.496,2.013,5.496S1827.144,1786.519,1817.652,1787.706z"/>
			</g>
			<path style="fill:#225399;" d="M1864.676,1110.04c-19.56-34.386-20.488-48.192-39.695-60.099
				c-21.447-9.777-37.475-10.9-37.475-10.9s-7.466,33.119-12.184,37.441c-4.719,4.322-73.129,11.4-74.705,3.539
				c-1.503-7.51,17.787-36.72,19.229-39.295c0.071-0.117-3.11,0.242-3.11,0.242c-7.798,1.026-13.3,1.809-17.271,2.484
				c-5.271,0.904-7.854,1.622-9.577,2.453c-4.654,0.761-27.49,7.796-51.502,72.93c0,0,19.5,24.464,34.577,28.793
				c0.395,0.113,0.794,0.211,1.194,0.31c-2.619,43.737-18.718,116.524-12.918,158.637c5.574,40.485,90.742,30.13,107.626,26.375
				c11.571-2.566,20.522-14.786,26.916-36.56c2.116,15.218,6.861,33.057,17.505,34.164c17.415,1.801,24.619-1.207,26.718-7.807
				c0.604-1.9,0.783-4.557,0.612-7.88c-0.796-15.948-11.844-70.932-22.348-117.03c-4.471-19.62-10.689-34.154-12.967-49.053
				C1826.22,1148.785,1854.635,1132.252,1864.676,1110.04z"/>
			<path style="fill:#FFB27D;" d="M1558.957,1105.45c0.488-1.9,2.955-39.015,4.01-35.493c1.056,3.521,3.567,22.981,3.567,22.981
				L1558.957,1105.45z"/>
			<polygon style="fill:#225399;" points="1569.772,1051.858 1571.23,1055.659 1593.693,1114.055 1582.837,1118.836 
				1553.018,1063.683 1551.077,1060.095 			"/>
			<polygon style="fill:#174884;" points="1569.772,1051.858 1571.23,1055.659 1553.018,1063.683 1551.077,1060.095 			"/>
			
				<rect x="1581.713" y="1110.947" transform="matrix(0.9151 -0.4031 0.4031 0.9151 -315.1791 734.8857)" style="fill:#FFFFFF;" width="12.531" height="10.276"/>
			<path style="fill:#FFB27D;" d="M1566.534,1091.021c0,0,10.101-15.541,12.569-14.677c3.523,1.234-9.158,20.956-9.158,20.956
				s9.397-14.737,10.864-13.63c3.344,2.525-1.979,11.785-7.258,18.885c0,0,9.449-8.654,9.757-7.096
				c1.079,5.459-10.374,18.687-10.374,18.687l-6.4-14.62V1091.021z"/>
			<path style="fill:#FFFFFF;" d="M1725.958,987.871c0,0-0.905,3.846-10.476,3.253c0,0-8.034-0.497-7.788-4.725
				C1707.694,986.4,1715.484,983.393,1725.958,987.871z"/>
		</g>
		<g>
			<g>
				<path style="fill:#FFFFFF;" d="M2023.504,1430.759h-228.021c-2.177,0-3.941-1.765-3.941-3.942l0,0
					c0-2.177,1.765-3.941,3.941-3.941h228.021c2.177,0,3.941,1.765,3.941,3.941l0,0
					C2027.445,1428.994,2025.681,1430.759,2023.504,1430.759z"/>
				<rect x="1813.516" y="1473.955" style="fill:#FFFFFF;" width="192.851" height="6.615"/>
				<rect x="1822.545" y="1518.679" style="fill:#FFFFFF;" width="175.266" height="8.835"/>
				<g>
					
						<rect x="1808.71" y="1423.6" transform="matrix(0.9657 -0.2596 0.2596 0.9657 -320.9991 520.9324)" style="fill:#FFFFFF;" width="6.864" height="104.819"/>
				</g>
				<g>
					<rect x="1906.509" y="1430.759" style="fill:#FFFFFF;" width="6.863" height="92.293"/>
				</g>
				<g>
					
						<rect x="1854.75" y="1430.372" transform="matrix(0.9918 -0.1281 0.1281 0.9918 -173.8945 250.1479)" style="fill:#FFFFFF;" width="6.863" height="93.781"/>
				</g>
				<g>
					
						<rect x="1955.661" y="1472.578" transform="matrix(0.2595 -0.9657 0.9657 0.2595 61.512 3032.2429)" style="fill:#FFFFFF;" width="104.819" height="6.864"/>
				</g>
				<g>
					
						<rect x="1915.141" y="1473.831" transform="matrix(0.1282 -0.9917 0.9917 0.1282 245.3878 3233.6814)" style="fill:#FFFFFF;" width="93.781" height="6.863"/>
				</g>
			</g>
			<path style="fill:#EF7E29;" d="M1793.756,1427.573L1793.756,1427.573c-0.779-1.196-0.438-2.813,0.759-3.593l114.794-74.794
				c1.197-0.78,2.813-0.438,3.594,0.758l0,0c0.779,1.196,0.438,2.813-0.759,3.593l-114.794,74.794
				C1796.152,1429.111,1794.536,1428.77,1793.756,1427.573z"/>
			<path style="fill:#EF7E29;" d="M2023.345,1427.573L2023.345,1427.573c0.78-1.196,0.438-2.813-0.758-3.593l-114.795-74.794
				c-1.196-0.78-2.813-0.438-3.593,0.758l0,0c-0.779,1.196-0.438,2.813,0.758,3.593l114.795,74.794
				C2020.948,1429.111,2022.565,1428.77,2023.345,1427.573z"/>
		</g>
		<path style="fill:#FFB27D;" d="M1882.742,1337.77c0,0,3.156,14.856,7.023,19.208c3.868,4.352,9.187,11.604,11.362,9.67
			c2.175-1.935-2.418-18.131-2.418-18.131L1882.742,1337.77z"/>
	</g>
	<path style="fill:#2E3552;" d="M3103.873,1795.086H70.465c-1.895,0-3.445-1.551-3.445-3.445v-1.175c0-1.895,1.55-3.445,3.445-3.445
		h3033.408c1.895,0,3.444,1.551,3.444,3.445v1.175C3107.317,1793.535,3105.768,1795.086,3103.873,1795.086z"/>
	<g>
		<path style="fill:#FFB27D;" d="M2504.072,1057.6c0,0-8.835-28.5-13.851-31.565c-5.016-3.065-25.936-13.376-27.18-10.589
			c-1.243,2.786,11.296,16.324,14.083,20.841c2.786,4.517,4.18,8.976,2.229,7.024c-1.95-1.95-12.539-8.477-13.654-7.024
			c-1.114,1.451,5.295,7.024,8.36,11.483c3.065,4.458,6.409,11.982,17.276,13.654
			C2502.204,1063.096,2504.072,1057.6,2504.072,1057.6z"/>
		<g>
			<polygon style="fill:#FFFFFF;" points="2484.943,998.234 2484.233,1002.242 2473.374,1063.859 2461.606,1062.359 
				2464.491,999.727 2464.678,995.652 			"/>
			<polygon style="fill:#EBF3FA;" points="2484.943,998.234 2484.233,1002.242 2464.491,999.727 2464.678,995.652 			"/>
			
				<rect x="2461.165" y="1057.515" transform="matrix(0.992 0.1264 -0.1264 0.992 154.1157 -303.3701)" style="fill:#AEC3FF;" width="12.531" height="10.276"/>
			
				<rect x="2468.655" y="1040.2" transform="matrix(0.9919 0.1267 -0.1267 0.9919 152.6234 -304.4869)" style="fill:#CDE0FB;" width="0.879" height="13.867"/>
		</g>
		<path style="fill:#EF7E29;" d="M2760.256,1058.428c0,0-24.575,102.742-164.266,117.934
			c-38.079,4.142-108.574-105.769-108.574-105.769s-1.744-23.61,16.656-21.048c0,0,77.926,69.551,88.167,75.401
			c9.087,5.191,90.258-53.095,117.5-64.696S2760.256,1058.428,2760.256,1058.428z"/>
		<path style="fill:#233862;" d="M2900.899,1718.932c0,0,14.614,13.337,11.763,22.813c-2.852,9.476-16.041,15.794-17.822,27.376
			c-1.783,11.582-8.912,17.899-15.328,17.899s-30.589,0-30.589,0s-4.723-8.15,6.684-10.606
			c11.407-2.457,15.707-16.067,14.994-28.703c-0.712-12.635,1.069-29.481,1.069-29.481l24.238-5.616L2900.899,1718.932z"/>
		<path style="fill:#233862;" d="M2721.605,1753.427c0,0,2.623,30.353-3.793,33.511l-82.111-0.168c0,0,0-9.477,13.189-11.582
			c13.188-2.106,36.357-9.828,40.278-27.025C2693.09,1730.964,2721.605,1753.427,2721.605,1753.427z"/>
		<path style="fill:#2A4E96;" d="M2652.281,1324.669c0,0,4.331,53.205,9.422,117.16c6.918,86.878,15.237,193.592,16.061,213.809
			c1.423,35.104,7.133,91.258,7.133,91.258s13.538,13.341,40.635,7.718c0,0,24.146-80.16,31.043-164.974
			c0.107-1.39,0.215-2.79,0.321-4.19c6.416-86.341,16.394-268.15,16.394-268.15L2652.281,1324.669z"/>
		<path style="fill:#233862;" d="M2652.281,1324.669c0,0,4.331,53.205,9.422,117.16l94.871,147.811
			c0.107-1.39,0.215-2.79,0.321-4.19c6.416-86.341,16.394-268.15,16.394-268.15L2652.281,1324.669z"/>
		<path style="fill:#2A4E96;" d="M2672.06,1330.987c0,0,78.062,192.687,129.391,283.239
			c51.328,90.552,67.368,115.822,67.368,115.822s29.407-11.582,32.081-19.479c0,0-19.629-174.816-54.002-217.432
			c-19.423-24.08-42.239-96.343-43.309-121.613s-6.95-75.285-6.95-75.285L2672.06,1330.987z"/>
		<path style="fill:#FFB27D;" d="M2774.768,1034.042c0,0-52.818,25.484-83.269,16.029c0,0,7.495-9.455,20.612-16.49
			c-1.054-6.112-1.874-11.416-2.343-15.914c-1.288-10.379-1.288-16.26-1.288-16.26l20.378-16.028l19.323-15.338
			C2746.659,1013.17,2774.768,1034.042,2774.768,1034.042z"/>
		<path style="fill:#F99746;" d="M2802.6,1306.107c0.117,3.235-6.788,6.922-9.84,8.302c-22.596,9.923-43.68,16.837-67.571,19.144
			c-28.223,2.885-61.603-3.461-73.081-3.227c-1.17,0-2.224-0.46-3.16-1.271c-0.819-0.577-1.404-34.593-0.819-77.378
			c0-1.723,0-3.453,0.117-5.184v-0.576c0.234-16.72,0.819-34.25,1.639-51.78c1.639-38.514,4.689-75.647,9.839-96.171
			c6.203-24.218,20.265-40.244,33.029-51.897l10.533-9.221c10.543,2.073,21.669,1.496,32.796-3.921
			c12.181-5.877,25.296-12.222,27.403-10.608c15.926,11.646,26.701,37.819,32.444,71.267c0.024,0.168,0.059,0.326,0.083,0.493
			c3.219,19.128,4.832,40.521,4.715,62.924c0,8.31-0.233,16.837-0.702,25.255c-2.349,38.138-0.777,72.087,0.761,95.611
			c0.301,4.647,0.611,8.886,0.878,12.673C2802.132,1297.229,2802.482,1302.421,2802.6,1306.107z"/>
		<path style="fill:#EF7E29;" d="M2800.785,1277.869c-87.551-101.087-33.238-174.552-33.238-174.552l28.465-9.238
			c3.219,19.128,4.832,40.521,4.715,62.924c0,8.31-0.233,16.837-0.702,25.255
			C2797.676,1220.396,2799.247,1254.345,2800.785,1277.869z"/>
		<path style="fill:#ED985F;" d="M2748.533,986.532c0,0-13.351,24.332-38.765,31.135c-1.288-10.379-1.288-16.26-1.288-16.26
			l20.378-16.028L2748.533,986.532z"/>
		<path style="fill:#FFB27D;" d="M2699.189,1000.705c0,0,50.386,8.243,55.115-22.733c4.73-30.976,14.419-50.773-17.551-57.346
			c-31.971-6.572-40.041,4.32-44.174,14.281C2688.448,944.868,2686.204,997.762,2699.189,1000.705z"/>
		<path style="fill:#2C3A64;" d="M2772.618,916.917c0.458-0.524,1.513-0.948,3.86-1.076c0,0-1.876-1.173-4.387-1.235
			c-0.49-3.265-2.227-9.043-7.846-10.448c0,0,3.02,1.61,3.414,5.081c-6.508-6.684-20.453-11.549-59.068-8.501
			c-50.892,4.017-34.119,36.601-27.531,40.485c6.59,3.884,23.173-6.765,35.448-5.79c12.275,0.974,14.61,18.712,18.774,21.146
			c4.164,2.434,2.526-1.87,8.161-4.417c5.634-2.547,6.17,6.789,4.542,12.86c-1.627,6.07,6.115,14.077,6.115,14.077s0,0,7.822-8.425
			c7.824-8.425,15.197-44.112,11.641-51.72C2773.25,918.282,2772.939,917.602,2772.618,916.917z"/>
		<path style="fill:#FFB27D;" d="M2476.735,1051.854c0,0-8.661-13.921-7.694-16.657c0.966-2.736,11.718,9.02,14.473,8.329
			C2486.27,1042.834,2476.735,1051.854,2476.735,1051.854z"/>
		<g>
			<g>
				<path style="fill:#FFFFFF;" d="M2934.674,1427.022h-228.021c-2.177,0-3.941-1.765-3.941-3.941l0,0
					c0-2.177,1.765-3.941,3.941-3.941h228.021c2.177,0,3.941,1.765,3.941,3.941l0,0
					C2938.615,1425.258,2936.851,1427.022,2934.674,1427.022z"/>
				<rect x="2724.686" y="1470.22" style="fill:#FFFFFF;" width="192.851" height="6.614"/>
				<rect x="2733.715" y="1514.943" style="fill:#FFFFFF;" width="175.266" height="8.835"/>
				<g>
					
						<rect x="2719.88" y="1419.865" transform="matrix(0.9657 -0.2596 0.2596 0.9657 -288.8028 757.3024)" style="fill:#FFFFFF;" width="6.864" height="104.819"/>
				</g>
				<g>
					<rect x="2817.68" y="1427.022" style="fill:#FFFFFF;" width="6.862" height="92.294"/>
				</g>
				<g>
					
						<rect x="2765.92" y="1426.637" transform="matrix(0.9918 -0.1281 0.1281 0.9918 -165.9112 366.8101)" style="fill:#FFFFFF;" width="6.863" height="93.781"/>
				</g>
				<g>
					
						<rect x="2866.831" y="1468.843" transform="matrix(0.2595 -0.9657 0.9657 0.2595 739.8647 3909.4607)" style="fill:#FFFFFF;" width="104.818" height="6.864"/>
				</g>
				<g>
					
						<rect x="2826.31" y="1470.096" transform="matrix(0.1282 -0.9917 0.9917 0.1282 1043.4257 4134.0703)" style="fill:#FFFFFF;" width="93.781" height="6.863"/>
				</g>
			</g>
			<path style="fill:#EF7E29;" d="M2704.926,1423.838L2704.926,1423.838c-0.779-1.197-0.438-2.813,0.758-3.594l114.795-74.794
				c1.197-0.779,2.813-0.438,3.594,0.759l0,0c0.779,1.196,0.438,2.813-0.759,3.593l-114.794,74.794
				C2707.322,1425.375,2705.705,1425.034,2704.926,1423.838z"/>
			<path style="fill:#EF7E29;" d="M2934.516,1423.838L2934.516,1423.838c0.779-1.197,0.438-2.813-0.759-3.594l-114.794-74.794
				c-1.197-0.779-2.814-0.438-3.594,0.759l0,0c-0.779,1.196-0.438,2.813,0.758,3.593l114.795,74.794
				C2932.118,1425.375,2933.735,1425.034,2934.516,1423.838z"/>
		</g>
		<path style="fill:#FFB27D;" d="M2840.989,1322.579c0,0-3.792,25.227-5.555,30.616c-2.795,8.547-16.864,13.039-31.248,9.068
			c0,0,13.352-7.802,12.846-10.672c-0.817-4.637-7.399,2.135-9.723,2.439c0,0,1.338-5.12,1.254-9.362
			c-0.083-4.241,11.302-14.713,15.315-23.744C2827.893,1311.893,2840.989,1322.579,2840.989,1322.579z"/>
		<path style="fill:#F99746;" d="M2763.463,1022.063c0,0,31.88,15.096,47.165,38.304c23.71,36,51.193,167.2,51.701,179.35
			s-20.06,97.923-20.06,97.923s-20.86-1.374-26.24-11.902c0,0,4.168-88.13,1.527-93.796c-2.642-5.665-86.964-118.217-77.482-142.234
			C2749.557,1065.688,2763.463,1022.063,2763.463,1022.063z"/>
	</g>
</g>
</svg>
